<?xml version="1.0" standalone="no"?>
<!DOCTYPE svg PUBLIC "-//W3C//DTD SVG 1.1//EN" "http://www.w3.org/Graphics/SVG/1.1/DTD/svg11.dtd" >
<svg xmlns="http://www.w3.org/2000/svg">
<metadata>
This is a custom SVG webfont generated by Font Squirrel.
Copyright   : c Jakob Fischer at wwwpizzadudedk  DO NOT DISTRIBUTE WITHOUT AUTHORS PERMISSION
</metadata>
<defs>
<font id="webfontVfzJbFl0" horiz-adv-x="1167" >
<font-face units-per-em="2048" ascent="1638" descent="-410" />
<missing-glyph horiz-adv-x="630" />
<glyph unicode=" "  horiz-adv-x="630" />
<glyph unicode="&#x09;" horiz-adv-x="630" />
<glyph unicode="&#xa0;" horiz-adv-x="630" />
<glyph unicode="!" horiz-adv-x="813" d="M721 1006l-37 -412q-2 -18 -45 -45q-45 -31 -57 -43q-6 -18 -15 -55q-12 -29 -45 -29q-80 0 -78 119q2 94 -12 145q-14 23 -31 72q0 43 -16 145q-2 10 -37 51l-31 41q0 22 19 74q20 49 20 80v115q0 132 86 166l43 16q0 -12 23 -12q4 0 24.5 6t24.5 6q18 0 64 -23 q43 -20 51 -39q12 -20 28 -75q25 -246 21 -303zM692 117q0 -104 -119 -119q-18 -53 -26 -61q-18 -31 -53 -31q-43 0 -56 37q0 47 -10 129q-20 20 -43 39q-14 12 -14 59t47 100q49 51 98 52q8 0 29 -11l22 -12q61 -12 86 -49q8 -14 25 -66q14 -42 14 -67z" />
<glyph unicode="&#x22;" horiz-adv-x="1017" d="M852 1395q0 -114 -43 -166q-9 -9 -55 -43q-37 -27 -47 -49l4 -68q0 -86 -72 -86h-31q-25 37 -24 82q0 12 4 41q-98 41 -99 76q0 6 41 59q41 57 41 64q0 16 -39 36q-16 8 -35.5 41t-19.5 52q0 25 25 71q27 43 49 54q35 14 67 14q234 0 234 -178zM401 1327q0 -53 -49 -139 l-49 -58v-86q-9 -80 -55 -79q-43 0 -62 116q-4 0 -15 -3t-15 -3q-70 0 -70 72q0 14 23 43q47 57 47 110q0 35 -41 88.5t-41 73.5q0 37 45 82q47 47 82 47q39 0 69 -14q131 -55 131 -250z" />
<glyph unicode="#" horiz-adv-x="1558" d="M1174 862q0 -45 -15 -80q-18 -49 -53 -49q-16 0 -32.5 29t-24.5 29q-25 0 -56 -11q-12 -80 -12 -137q0 -23 47 -47q45 -20 49 -29q20 -43 21 -149q0 -37 -25 -88q-29 -59 -57 -60h-19q-18 0 -36 31l-19 29q-2 0 -43 -29q-4 -72 -4 -74q-6 -43 -29 -71q-16 -14 -49 -60 l-6 -88q-14 -76 -68 -76q-29 0 -41 45q-14 55 -18 60q-29 -23 -61 -23q-45 0 -45 160q0 14 11 57t11 58q0 35 -7 43t-40 8q-35 0 -46 -11.5t-18 -49.5q-10 -51 -14 -60q-37 -76 -102 -110q0 -160 -66 -160q-63 0 -63 82q0 15 6 30q-98 37 -98 76l6 43q5 36 8 60q2 98 0 149 q-86 53 -86 84q0 25 22.5 72t42.5 65l58 29q33 20 39 45q18 71 18 129v27q-4 4 -14 4q-4 0 -30 -17.5t-32 -17.5q-82 0 -82 70q0 35 23 102q25 76 49 84q57 4 160 27q27 8 74 65q-35 45 -35 62q0 8 8 22q2 4 2 66q0 45 20 63q66 59 150 60q80 0 112.5 -26t32.5 -97 q0 -16 -2 -31v-33q0 -59 9 -94l71 14q53 16 68 72l14 111q3 31 43 67q39 39 70 39q102 0 102 -104q0 -55 -14 -150q0 -2 -1 -7l-14 -75q0 -55 39 -69l15 -7q16 -8 20 -12q56 -55 56 -166zM723 762q0 41 -10 47q-39 23 -86 22q-96 0 -97 -143q0 -66 105 -65q88 0 88 139z" />
<glyph unicode="%" horiz-adv-x="1302" d="M498 1247q0 -53 -43 -200l-43 -64q-25 -31 -109 -45q-18 -12 -53 -59q-28 -37 -49 -37q-33 0 -74 65q0 33 -4 49q-10 27 -37 48l-35 26q-51 70 -51 156t55 178q68 115 176 115q6 0 12.5 -13.5t12.5 -13.5t7 3q3 3 7 3q100 0 164 -57.5t64 -153.5zM1294 369 q0 -45 -26 -125q-25 -80 -47 -117q-20 -18 -58 -57l-43 -99q-39 -70 -92 -69q-45 0 -45 75l4 66v-2q-2 12 -41 31l-51 26q-66 61 -66 156q0 106 66 221q78 133 188 133q76 0 144 -82q67 -83 67 -157zM1085 1462q0 -59 -45 -147l-77 -137q-16 -29 -45 -150l-35 -156l-62 -159 q-45 -115 -45 -197q0 -31 2 -37q6 -25 -10 -94q-20 -88 -74 -88q-20 0 -47 27q-29 -33 -47 -164q-16 -133 -22 -187q-6 -41 -70 -110q-12 -4 -43 -29q-8 -68 -41 -184q-29 -53 -82 -53q-61 0 -76 88l-18 108q-43 27 -94 76q-2 6 -2 27q0 49 81 210q18 49 19 95q0 12 -5 57 t-5 59q0 45 94 164q39 61 70 162l59 184q27 29 80 103q20 47 39 129q33 121 34 127q51 150 207 459q14 -14 29 -15q8 0 34.5 7.5t35.5 7.5q68 0 114.5 -54.5t46.5 -128.5z" />
<glyph unicode="&#x26;" horiz-adv-x="1595" d="M1462 549q0 -37 -18 -76q-23 -49 -51 -49q-27 0 -33 29q-27 -35 -27 -80q0 -18 58 -94q59 -78 59 -125q0 -41 -27.5 -75t-66.5 -36q-6 -90 -15 -111q-18 -66 -69 -65q-37 0 -62 72q-10 59 -45 157l-63 -24q-29 0 -35 34l-18 95l-76 -23q-43 -12 -68 -37 q-125 -125 -246 -114q0 -47 -22 -99q-27 -61 -70 -61q-68 0 -69 61q-2 20 -2 95q-10 18 -21 24q-8 0 -19.5 2t-27.5 6t-29 6q-27 8 -88 70l-41 -29q-33 -25 -59 -24q-53 0 -53 88q0 31 10 92l16 92q2 27 0 82l-6 70q0 59 51 129q4 8 95 110q2 4 86 64q57 39 57 78 q0 51 -57 71q-80 29 -88 37q0 2 4 15.5t10 37t12 50.5q8 51 17 92q12 55 34 84q47 59 205 174q43 31 101 47q98 27 163 27q43 0 117 -23q71 -22 98 -49q25 -25 47 -141q12 -18 37 -70l31 -107q0 -8 -22 -47q-16 -27 -23 -47q-4 -4 0 -90q3 -129 -80 -129q-25 0 -53 53 l-86 -45q-10 -53 63 -141q76 -88 129 -88q2 0 72 82t117 82q55 0 104 -88q43 -76 43 -121zM877 1141q0 25 -27 49q2 -33 -22.5 -66.5t-53.5 -33.5q-33 0 -35 38q-6 52 -18 68l-19 -27q-12 -28 -12 -67q0 -20 33 -45q34 -25 55 -25q27 0 62 41q37 40 37 68zM754 459 q0 25 -19 53q-39 -12 -57 -12q-6 0 -47 37q-37 39 -43 38q-27 0 -49 -59q-18 -49 -19 -65q0 -29 39 -74l31 -55q12 -14 47 -14.5t76 54.5q41 60 41 97z" />
<glyph unicode="'" horiz-adv-x="477" d="M449 1352q0 -53 -50 -138q-35 -39 -49 -59q0 -59 -2 -86q-3 -80 -55 -80q-49 0 -62 117q-2 0 -14 -2t-14 -2q-72 0 -72 69q0 14 23 43q49 59 49 113q0 33 -41 86t-41 74q0 37 43 82q47 47 82 47q41 0 71 -14q132 -55 132 -250z" />
<glyph unicode="(" horiz-adv-x="772" d="M827 1534q0 -80 -184 -373q0 -121 -2 -170q-4 -152 -84 -151q-25 0 -70 37q-4 4 -20 69q-45 -37 -53 -45q-31 -31 -41 -53q-37 -77 -37 -301q0 -203 74 -344q39 -76 137 -180q74 -76 74 -121q0 -57 -43 -90q-4 -4 -91 -56q16 -160 -102 -159q-74 0 -82 100l-12 123 q-16 29 -33 47q-57 43 -72 57q-33 33 -43 58q-4 20 -10 69q-2 27 -18 45q-59 14 -76 23q-39 18 -39 59q0 2 41 201q12 61 14 227q4 115 6 152q12 111 48 190q29 63 108 166l152 195l172 235q76 100 194 101q37 0 64.5 -34t27.5 -77z" />
<glyph unicode=")" horiz-adv-x="790" d="M690 522l33 -164q0 -39 -57 -53q-33 -10 -41 -18q-10 -90 -56 -133q-78 -76 -86 -88q-6 -109 -7 -115q-14 -70 -68 -70q-23 0 -52 19q-25 16 -28.5 32.5t-3.5 79.5q-6 14 -62 29q-25 6 -41 59q-6 22 -6 31q0 39 31 70q125 125 168 231q35 88 35 227q0 287 -109 328 q0 -14 -6 -39q-28 -49 -68 -49q-68 0 -69 125q-2 47 -2 141q-150 236 -150 305q0 33 22.5 62t53.5 29q80 0 137 -56q20 -16 94 -121q83 -114 117 -153q135 -147 176 -268q25 -76 35 -215q6 -169 10 -226z" />
<glyph unicode="*" horiz-adv-x="874" d="M705 322q0 -22 -25 -37q-2 0 -6 -1t-12.5 -2t-16.5 -1q-20 -51 -92 -52q-14 0 -23.5 4.5t-16.5 13.5t-10 15t-8.5 20.5t-7.5 20.5q-2 8 -38 62h-23q0 -2 -2 -3v-6q0 -4 7 -26.5t7 -26.5q0 -74 -92 -82l-4 -10q-4 -10 -8 -21.5t-12.5 -22.5t-16.5 -13q-2 -2 -14 -2 q-33 0 -39 43q-6 45 -8 47l-21 12q-10 4 -10 18q0 10 33 52l43 51q2 2 -1 4t-9 2q-3 0 -43 -25q-39 -23 -62 -22q-72 0 -72 98q0 27 16.5 51.5t39.5 24.5q6 0 28.5 -7t26.5 -7q20 0 37 16q-9 31 -31 31q-4 0 -20.5 -3t-22.5 -3q-35 0 -35 40q0 16 37 78q8 27 33 72 q12 14 33 14q27 0 43 -53l8 -55q0 -4 14 -35q2 20 2 43q0 12 -5 51t-5 49q0 45 78 45q57 0 76 -55q-3 -28 6 -92l45 65q20 27 59 27q3 0 31 -12l29 -15q49 -88 49 -131q0 -14 -17.5 -32.5t-31.5 -20.5q-20 -2 -84 -14q-12 -4 -13 -17q0 -6 54 -22q33 -8 69 -21 q39 -23 41 -43q13 -70 13 -79z" />
<glyph unicode="+" horiz-adv-x="1187" d="M1067 662q0 -70 -49 -95q-14 -6 -51 -19t-58 -22q-2 -23 -2 -63q-10 -18 -71 -19q-53 0 -66 19q-9 12 -12 67q-2 0 -27 33q-18 31 -20 31q-6 0 -17 -25q0 26 2 0q1 -20 2 -61q6 -101 7 -111q0 -272 -123 -272q-43 0 -64 10q-33 16 -65 80q-6 9 0 61q4 41 -11 64l-45 53 q-23 29 -22 51q0 39 57 91v20q-8 0 -30.5 -4t-26.5 -4q-88 0 -144.5 46t-56.5 128q0 61 57 94q45 27 113 27q4 0 26.5 -3t26.5 -3q23 0 23 34q0 23 -21 43l-28 25q-20 23 -21 55q0 18 23.5 39t42.5 21q6 0 28.5 -3t28.5 -3q23 0 59 12q41 12 48 12q68 0 102 -59 q20 -33 35 -107q12 -57 31 -57q2 0 10 3t10 3q8 0 48 -15.5t48 -15.5q6 0 5 6.5t3 6.5q117 0 172 -97q23 -40 23 -77z" />
<glyph unicode="," horiz-adv-x="565" d="M535 -8q0 -55 -52 -137q-6 -8 -49 -60v-86q0 -80 -55 -80q-49 0 -62 117q-2 0 -14 -2t-14 -2q-72 0 -72 70q0 14 23 43q49 59 49 112q0 33 -41 86q-41 57 -41 74q0 37 43 82q47 47 82 47q41 0 71 -14q132 -55 132 -250z" />
<glyph unicode="-" horiz-adv-x="1210" d="M1022 637q0 -37 -16 -80q-18 -46 -50 -61q-68 -31 -137 -31q-12 0 -57 2t-57 2q-10 0 -44 -10t-43 -10q-16 0 -71 11t-72 11q-37 0 -41 -47l-8 -96q-15 -49 -80 -49q-63 0 -63 71q0 2 1 8.5t2 18.5t1 22q4 41 2 45q-8 14 -96 29q-59 29 -60 107q0 34 31 86t61 61 q70 25 101 25q6 0 6 -6.5t4 -6.5q8 0 47 15.5t49 15.5q2 0 10.5 -3t10.5 -3q35 0 57 22l14 -12l8 2l9 2q0 4 -4 8q156 -35 223 -34q10 0 45 3t47 3q61 0 113 -29q57 -33 57 -92z" />
<glyph unicode="." horiz-adv-x="661" d="M539 117q0 -53 -58 -105q-57 -53 -106 -53q-57 0 -121 39q-74 43 -74 94q0 74 39 128t103 54q72 0 139 -43q78 -46 78 -114z" />
<glyph unicode="/" horiz-adv-x="1071" d="M1085 1462q0 -59 -45 -147l-77 -137q-16 -29 -45 -150l-35 -156l-62 -159q-45 -115 -45 -197q0 -31 2 -37q6 -25 -10 -94q-20 -88 -74 -88q-20 0 -47 27q-29 -33 -47 -164q-16 -133 -22 -187q-6 -41 -70 -110q-12 -4 -43 -29q-8 -68 -41 -184q-29 -53 -82 -53 q-61 0 -76 88l-18 108q-43 27 -94 76q-2 6 -2 27q0 49 81 210q18 49 19 95q0 12 -5 57t-5 59q0 45 94 164q39 61 70 162l59 184q27 29 80 103q20 47 39 129q33 121 34 127q51 150 207 459q14 -14 29 -15q8 0 34.5 7.5t35.5 7.5q68 0 114.5 -54.5t46.5 -128.5z" />
<glyph unicode="0" horiz-adv-x="1107" d="M1053 702q0 -8 -17 -40l-18 -37q-18 -86 -17 -140q4 -115 -22 -194q-12 -39 -76 -101l-61 -77q-33 -43 -68 -47q-29 -6 -145 -21q-6 -6 -41 -131q-29 -96 -82 -96q-55 0 -70 110l-14 127q-12 23 -43 23h-21q-10 -2 -22 -2q-66 0 -88 74l-25 129q-41 72 -49 155 q-8 106 -22 144q-80 68 -80 112q0 27 18 66l45 75v211q0 113 68 238q74 131 164 174q8 0 65 4l69 18q36 10 46 12l10 3q12 0 27 -8l49 -25q106 -18 147 -35q68 -31 99 -106q10 -25 34 -133q2 -16 78 -127q27 -45 27 -115l14 -176q0 -8 10.5 -33t10.5 -31zM770 621l-2 -25 q-4 4 -20 143l-23 250l-6 107q-6 90 -49 90q-12 0 -41 -41t-56 -41q-41 0 -51 31v65q-4 29 -16 51h-23q-94 -168 -94 -458q0 -55 33 -291q10 -70 33 -148q35 -72 139 -71q121 0 158 123q18 61 18 215z" />
<glyph unicode="1" horiz-adv-x="724" d="M602 567l-1 18q-1 -4 -3 -40q-2 -45 -2 -154q-4 -102 -2 -108q9 -114 -37 -172q-35 -20 -90 -88l-16 -84q-20 -70 -69.5 -70t-57.5 80l-13 92q-34 34 -73 117q6 35 6 88q0 45 -2 71q-35 51 -35 86q0 18 10 56q8 23 16 53q4 29 5 88q0 231 -15 281q0 2 -69 32 q-68 31 -74 43q-2 2 -2 33q0 33 28 113q25 61 39 92l91 129q20 27 20 82l55 18q43 18 51 19q47 0 119 -37q31 -16 47 -47q49 -88 50 -223q0 -46 -6.5 -141.5t-6.5 -141.5q2 -6 29 -104q8 -27 8 -181z" />
<glyph unicode="2" horiz-adv-x="1161" d="M1061 123q0 -125 -8 -156q-23 -84 -103 -84q-41 0 -69 80q-29 78 -35 78t-26.5 -5t-24.5 -5q-8 0 -46 11t-46.5 11t-61.5 -39q-55 -37 -61 -37q-20 0 -45 52q-25 53 -43 53q-86 0 -125 -19l-52 -86q-49 -88 -79 -88q-57 0 -68 97q-10 115 -18 127l-58 30q-12 10 -22 29 q-12 29 -13 76q0 96 72 244q14 31 111 108l225 225l100 90q10 8 45 93q33 80 33 100q0 51 -40 94t-91 43h-33q-63 -59 -129 -139l-24 -117q-35 -109 -90 -108q-27 0 -52.5 23.5t-23.5 49.5q4 70 -29 127q-33 59 -33 82q0 211 131 303q63 45 107 47q39 -2 199 -2 q6 0 30.5 5.5t30.5 5.5q109 0 139 -15q51 -20 142 -106q86 -82 100 -133q20 -68 20 -154q0 -80 -28 -133l-92 -180q-37 -43 -84 -123l-9 -105q-10 -86 -75 -86q-25 0 -74 78q-131 -92 -131 -162q0 -18 22.5 -34.5t46.5 -16.5q16 0 67.5 3t68.5 3q106 0 186 -20 q68 -18 117 -34.5t49 -180.5z" />
<glyph unicode="3" horiz-adv-x="1107" d="M1006 371q0 -35 -29 -109q-39 -92 -41 -112q-3 -12 0 -44l4 -57q6 -84 -70 -84q-6 0 -32.5 6t-32.5 6q-27 0 -78 -69q-53 -72 -72 -72q-39 0 -69 53q-29 53 -58 54q-12 0 -54 -12.5t-54 -12.5q-53 0 -117 35l-65 37l-37 -47q-35 -47 -62 -47q-49 0 -61 43q-12 45 8 159 q6 33 6 54q0 16 -13 49l-13 32q0 45 43 103q47 59 88 59q77 0 122 -49l62 -88q43 -51 86 -51q119 0 172 47q18 16 29 70l8 40l6 30l2 9l13 38l14 38q0 29 -25 39q-59 -59 -72 -59q-41 0 -57 127q-4 23 -14 47q-6 2 -37 2q-6 0 -22.5 -3t-22.5 -3q-35 0 -72 27.5t-37 56.5 q0 14 14.5 50t24.5 48q84 41 115 59q12 8 33 45q23 41 34 48q23 6 62 34q23 39 22 95q0 43 -12 61q-29 41 -147 47q-10 2 -33 -21.5t-62 -72.5q-27 -14 -55 -39l-26 -147q-16 -84 -74 -84q-35 0 -45 55l-13 84q-78 18 -77 80q0 4 7 27.5t7 31.5l4 92q12 115 127 158 q27 10 109 37q76 43 176 90q25 8 131 8q53 0 145 -61q25 -16 58 -105q31 -47 90 -166q6 -14 4 -53q-2 -45 0 -57l28 -162q0 -59 -51 -59q-4 0 -15 3t-15 3q-27 0 -44 -41l-16 -45q16 -10 70 -47q37 -37 45 -103q2 -16 16 -117q17 -108 17 -118z" />
<glyph unicode="4" d="M1143 407.5q0 -51.5 -25 -90.5q-29 -47 -74 -47q-25 0 -32 9l-25 32q-2 -2 0 -131q0 -8 -39 -131q-23 -27 -39 -55q-2 -6 -2 -66q0 -94 -92 -94q-43 0 -55 51l-12 86q-2 8 -54 31q-27 33 -28 148v2q0 2 1 7t1 13t1 19.5t1 23.5q4 66 -25 87.5t-96 10.5q-49 -8 -129 4 q-10 -10 -39 -81q-18 -47 -66 -48q-49 0 -63 52l-8 79q-57 16 -90 35q-40 22 -62 74q-29 57 -29 94q0 68 74 164l82 107q25 68 57 139q10 23 56 59q51 41 76 66q31 80 98 176l201 233q8 10 41.5 23.5t48.5 13.5q6 0 108 -30q82 -76 99 -119q14 -37 2 -211q9 -65 18 -381 q2 -43 0 -82q-2 -35 -2 -113l80 -67q41 -41 41 -92.5zM692 803l-4 78q-4 102 -4 118q-29 -29 -46 -78t-9 -85q14 -63 8 -86q-14 -39 -57 -39q-4 0 -18.5 6t-20.5 6q-23 0 -60 -57q-37 -59 -37 -82v-19q4 0 19.5 -3t19.5 -3q12 0 55.5 20.5t59.5 20.5q4 0 24.5 -6t24.5 -6 q57 0 45 215z" />
<glyph unicode="5" horiz-adv-x="1185" d="M1114 467q0 -106 -63 -182q-145 -174 -181 -226q-6 -12 -41.5 -22t-58.5 -10q-4 0 -12 3t-10 3q-6 0 -29 -21q-23 -16 -27 -24q-4 -35 -14 -82q-8 -18 -40 -46t-50 -28q-47 0 -64 62l-24 90q-74 8 -142 20q-6 4 -57 47q-39 35 -55 35l-37 -20q-35 -20 -62 -21 q-49 0 -53 25l-16 77q0 10 6 60q2 12 -8 31l8 10q6 8 0 45l-6 37q0 71 74 110q57 33 137 33q47 0 90 -37l70 -74q43 -45 83 -55l11 -10l61 12q47 10 74 58q12 18 14 69l8 88q0 8 10.5 33t10.5 33q0 31 -19 37q-14 0 -40 2q-45 2 -46 53q0 18 7 43q12 47 -17 66 q-25 -12 -110 -46q-25 0 -95 -16q-10 -10 -36 -102q-8 -18 -38 -36t-51 -18q-31 0 -43 45l-6 50q-111 41 -110 145q0 10 41 221q27 57 39 94q18 143 20 158q14 82 47 150q14 33 142 45l159 16q143 16 223 16q68 0 95 -8l65 -45l47 -20q66 -43 66 -176q0 -35 -19 -88 q-22 -61 -49 -62q-31 0 -53 31t-18 63q-34 -6 -68 -6q-6 0 -92 23q-20 0 -55 -72q-10 -23 -35 -45q-66 4 -82 33q-8 39 -10 53q-9 25 -43 25q-31 0 -56 -80q-18 -61 -18 -90q0 -41 20 -41q66 0 70 2q57 12 72 12q6 0 28.5 7t28.5 7q14 0 63.5 -8t61.5 -8h16q45 0 111 -27 q37 -16 119 -139q29 -45 47 -190q14 -107 14 -197z" />
<glyph unicode="6" horiz-adv-x="1239" d="M1167 291q0 -33 -8 -51l-55 -39q-20 -14 -49 -88q-29 -72 -43 -84q-15 -3 -37 -25q-8 -66 -10 -70q-29 -102 -88 -102q-43 0 -52 27q-16 49 -26 61q-20 -2 -82 -24q-53 -16 -57.5 -16.5t-12.5 2.5t-12 3q-2 0 -33 -67q-29 -68 -72 -68q-51 0 -59 49l-18 76q-12 25 -54 37 q-49 16 -53 22q-82 96 -117 195l-12 90q-10 55 -27 84q-6 10 -40 23q-39 18 -44 20q-16 14 -8 113q2 25 -8 88l-10 53q0 25 20 86q20 70 25 90q2 61 16 170q2 29 58 96l80 93l96 153q53 84 131 117q92 41 170 61l6 13q6 10 14 10q131 0 258 -88q143 -94 144 -219 q0 -59 -31 -95q-23 -23 -88 -51l-18 -55q-14 -33 -43 -33h-19q-33 0 -49 72l-21 98q-23 59 -75 60q-47 0 -84 -94.5t-76 -94.5q-29 0 -57 60q-18 -18 -43 -97q-25 -76 -25 -108q0 -18 10 -19q4 0 70 31q66 35 82 37q57 14 137 14q40 0 104 -24q12 -6 53.5 -21.5t65.5 -25.5 q61 -33 96 -82q6 -6 23 -148l18 -188q4 -23 21 -66q18 -46 18 -61zM926 406q0 37 -74 126q-70 92 -107 93h-18q-4 -20 -4 -93q0 -100 -47 -100q-52 0 -111 129q-115 -78 -114 -158q0 -41 10 -57q18 -33 22 -53q2 -35 23 -94q72 -2 123 -54q12 -12 30 -12q31 0 74 55l58 72 l108 62q8 8 16 38q11 38 11 46z" />
<glyph unicode="7" horiz-adv-x="1126" d="M995 1030q0 -68 -61 -67q-4 0 -12.5 3t-12.5 3q-29 0 -37 -33q-6 -51 -26 -125q-51 -57 -80 -100q-104 -143 -111 -316q0 -23 -36.5 -47t-36.5 -49t8 -55q0 -2 -17 -25l-16 -119q-27 -94 -100 -94h-23l-14 -69q-16 -78 -80 -78q-66 0 -70 78l-6 112q-6 6 -43 51 q-8 14 -8 43q0 27 68 236q23 45 55 119q6 63 33 151q7 6 33 35l44 49q6 39 27 92l90 140q74 113 74 137v24h-145q-33 0 -91 -12l-49 -10q-12 0 -52 11t-52 11q-4 0 -35 -49t-63 -49q-51 0 -58 59q2 33 2 101l-16 84q0 37 41 82q45 45 82 47l114 10q4 0 19.5 8t19.5 8 q6 0 31 -9t29 -9q16 0 75.5 17.5t75.5 17.5q68 0 121 -21l10 -7q10 -7 17 -7q8 0 32.5 6t30.5 6q2 0 10.5 3t12.5 3q178 0 178 -118q0 -20 -6 -76q-6 -57 -4 -80q0 -10 14 -59.5t14 -63.5z" />
<glyph unicode="8" d="M1110 489q-4 -4 -29 -65l-16 -45q-16 -129 -21 -143q-18 -53 -94 -117q-33 -14 -82 -49q-20 -20 -34 -56q-20 -47 -27 -53q-8 -12 -37 -27.5t-43 -15.5t-61 21q-43 20 -76 20q-12 0 -53 -9t-54 -9q-49 0 -139 53q-12 0 -47 -26.5t-57 -26.5h-25q-37 18 -35 112 q0 45 -6 72q-27 35 -61 119q2 35 -4 98q-4 27 -27 100q-18 58 -19 68q0 70 21 104q2 6 84 95q72 78 72 98q0 27 -31 27q-6 0 -14.5 -5.5t-12.5 -5.5q-68 0 -59 92q4 61 4 74q0 4 -13.5 33t-13.5 35q0 106 97 227q78 98 163 148q70 43 76 43t7 -4q1 -3 5.5 -3t32 19.5 t31.5 19.5q74 20 113 21q6 0 31.5 -8.5t33.5 -8.5q162 6 240 -102q27 -35 26 -84l-4 -76q33 -85 60 -170q27 -78 26 -131q0 -27 -61 -76q-61 -46 -62 -67q0 -6 37 -60q47 -37 78 -71q16 -20 47 -90q33 -68 33 -95zM793 1110q0 29 -29 58.5t-57 29.5q-2 0 -20.5 -35 t-49.5 -35q-29 0 -66 43q-33 45 -55 46q-4 0 -28.5 -13.5t-32.5 -13.5q-20 -74 -21 -88q0 -70 37 -96l88 -43q66 -57 76 -58q22 0 49 19q18 12 63.5 87.5t45.5 98.5zM768 461q0 29 -14 71q-20 68 -47 68q-3 0 -37 -25q-35 -23 -54 -22q-4 0 -20 2t-21 2q0 -76 -40 -76 q-65 0 -68 74l-6 115q-20 -10 -41 -56q-20 -41 -21 -67q0 -12 8.5 -52t8.5 -53q2 -2 -4 -34q-6 -31 -6 -37q0 -27 67 -66q59 -35 88 -35h43q14 4 35 17q129 68 129 174z" />
<glyph unicode="9" horiz-adv-x="1216" d="M1114 924q0 38 -6 -6q-4 -27 -10 -80q-16 -152 -17 -158l6 -98q2 -63 -6 -97q-57 -88 -67 -180q-4 -39 4 -92q8 -51 4 -90q-2 -18 -29.5 -36.5t-52.5 -18.5q-18 0 -25 10q-31 -23 -71 -80q4 -33 2 -70q-12 -90 -94 -90q-63 0 -78 43q0 10 -1 18.5t-2 13.5l-1 5 q-6 18 -19 29q-123 8 -127 12q-66 12 -121 53q-23 18 -45 19l-32 -21q-33 -20 -62 -20q-35 0 -60.5 23.5t-25.5 56.5q0 90 29 176q37 109 110 108q12 0 121 -59q106 -57 158 -57q49 0 113 38q66 41 86 82q43 92 43 136v57q-4 4 -15 4q-49 0 -90 -73.5t-69 -73.5 q-31 0 -43.5 47t-16.5 47q-2 0 -12 -3t-14 -3q-8 0 -39 14t-39 14q-4 0 -22.5 -2t-22.5 -2q-27 0 -68 23l-31 -41q-31 -41 -67.5 -41t-48.5 39q-6 18 -10.5 77.5t-10.5 77.5q-37 25 -76 74q2 25 -8 98q-4 10 -47 54q-39 39 -39 61q0 20 19 78q22 61 30 80q68 119 92 157 q58 89 117 142q102 90 187 98q55 0 104 4l152 17q49 0 118 -50q59 -39 101 -86q33 -39 88 -219q57 -178 57 -239zM831 1022q0 80 -2 86q-6 25 -34 74q-37 59 -66 59q-12 0 -31 -72q-14 -70 -61 -69l-29 -2q-10 2 -39 47q-2 0 -39 14q-20 25 -43 47l-45 -39q-27 -27 -32 -45 q-37 -102 -37 -157q0 -35 14 -50q28 -15 68 -49q10 -14 24 -51q8 -33 15 -47l2 -1l2 -1l2 -1h2l4 -2l37 -15q121 66 147 65q2 0 14.5 -3t14.5 -3q37 0 72 41q37 43 36 80q0 10 2 47t2 47z" />
<glyph unicode=":" horiz-adv-x="696" d="M555 938q0 -53 -55 -107q-53 -51 -109 -51q-61 0 -123 37q-70 39 -69 98q0 68 34 121q41 59 107 60q72 0 139 -43q76 -45 76 -115zM551 485q0 -39 -37 -100q-47 -74 -96 -74q-14 0 -60 29q-53 12 -94 27q-18 6 -35 59q-12 43 -12 74q0 55 43 100t96 45q8 0 42 -13.5 t44 -13.5q45 -10 77 -49t32 -84z" />
<glyph unicode=";" horiz-adv-x="702" d="M610 936q0 -59 -53 -109q-52 -49 -111 -49q-70 0 -127 56q-59 55 -59 122q0 27 33 84q41 72 88 72q76 0 147 -51q82 -55 82 -125zM641 457q0 -55 -27 -103q-37 -70 -43 -88v-96q-8 -82 -73 -82h-19q-31 0 -51 125q-31 6 -92 41q3 22 18 68q16 49 17 73q0 18 -6 29 q-47 35 -103 88q-2 4 -2 20q0 49 33 95q35 47 78 47q6 0 21.5 -9.5t19.5 -9.5q6 0 6 3.5t6 3.5q84 0 149 -64q68 -61 68 -141z" />
<glyph unicode="=" horiz-adv-x="1269" d="M1143 995q0 -51 -42 -94t-93 -43q-4 0 -21.5 5t-21.5 5q-16 0 -70 -41q-51 -41 -72 -41q-18 0 -45 23q-37 33 -53 37h-72q-10 0 -63 -25q-55 -23 -62 -22q-16 0 -65 16q-45 18 -64 19q-14 0 -55 -35t-68 -35q-23 0 -40 19.5t-17 41.5q0 29 2 52q4 35 0 53q0 4 -10 30.5 t-10 30.5q0 63 47 99q49 29 323 96l13 -10q33 0 80 -8.5t77 -8.5q402 -8 402 -164zM1083 602q0 -37 -16 -80q-18 -46 -49 -61q-68 -31 -137 -31q-12 0 -57.5 2t-57.5 2q-10 0 -44 -10t-42 -10q-16 0 -71.5 11t-71.5 11q-37 0 -41 -47l-9 -96q-15 -49 -79 -49q-63 0 -64 71 q0 2 1 8.5t2 18.5t1 23q4 41 2 45q-8 14 -96 28q-59 29 -59 107q0 34 30.5 86t61.5 61q70 25 100 25q6 0 6 -6t4 -6q8 0 47 15t50 15q2 0 10 -3t10 -3q35 0 57 23l15 -13q0 2 8 2t8 2q0 4 -4 9q156 -35 223 -35q10 0 45 3t47 3q61 0 113 -29q57 -33 57 -92z" />
<glyph unicode="?" horiz-adv-x="1353" d="M1245 915q0 -113 -74 -200q-78 -96 -184 -97q-12 0 -57 12.5t-60 12.5q-37 0 -36 -68q0 -28 6 -67l6 -39l-15 -35q-53 -27 -65 -26q-45 0 -90 36q-45 39 -51 39q-8 0 -52 -18q-12 -4 -47 -109q-12 -35 -48 -65.5t-66 -30.5q-70 0 -70 105q0 12 3 51t3 51q0 14 -6 20 q-2 6 -55 48q-41 31 -41 63q0 90 80 137l100 27q4 6 23 24q133 84 176 91q63 -4 170 8q57 14 57 98q0 14 -16 70q-15 52 -19 73q0 8 7 43t7 45q-45 39 -88 39q-35 0 -51 -55q-8 -27 -18 -84q-18 -49 -74 -49q-35 0 -57 37l-35 63q-8 -10 -55 -108q-28 -61 -93 -62 q-37 0 -106 31q-76 33 -88 59q-31 66 -31 134q0 92 62 114l63 33l94 145q43 53 133 54q8 0 53.5 -14.5t53.5 -14.5l102 51q41 12 152 12q96 0 196 -57q119 -68 119 -153q0 -23 -18 -72q-16 -49 -17 -70q0 -28 74 -160q43 -135 43 -172zM864 76q0 -37 -51 -90l-21 -20 q-10 -10 -16 -17.5l-11 -14t-8 -9.5l-3 -3q-8 -18 -11 -110q-2 -47 -51 -87t-102 -40q-84 0 -96 104l-15 133q-15 28 -49 55q-25 18 -24 58q0 96 88 147q72 43 174 43q63 0 129 -45q67 -46 67 -104z" />
<glyph unicode="A" horiz-adv-x="1447" d="M1430 414l-15 -39q-4 -23 -2 -53l-35 -11q10 -14 11 -30q0 -37 -25 -67t-55 -30h-29q-4 0 -23.5 17.5t-25.5 17.5q-10 0 -45 -92q-35 -90 -74 -90t-45 86q-2 18 -2 104l-23 99q-16 61 -36 94q-35 39 -74 96q-3 12 -12 31q-6 8 -27 8q-37 0 -82 -51q-45 -49 -53 -49 q-27 0 -51 41l-33 53q-14 -4 -58 -14q-40 -15 -55 -43l-29 -127q-25 -74 -63 -109q-27 -8 -68 -27l-43 -96q-41 -90 -82 -90q-37 0 -49 31q-10 63 -45 159q-12 18 -47 25q-53 8 -53 10q-10 4 -27 35q-16 37 -16 45q0 18 37 98l104 179q100 174 121 249q61 131 74 175 q20 88 35 141l45 174q0 74 -29 90q6 25 37 68q38 24 94 24h4q16 0 69.5 -11t67.5 -11q25 0 80 16q53 18 82 19q47 0 121 -105q70 -96 72 -127q16 -115 45 -229q4 -16 90 -168q74 -126 80 -191q10 -80 106 -204q25 -31 39 -101q17 0 17 -20zM831 825q0 57 -38 127l-43 19 q-41 18 -45 47q-80 -172 -80 -211q2 -2 8 -21q25 -10 78 -67q4 23 61 53q59 35 59 53z" />
<glyph unicode="B" horiz-adv-x="1208" d="M1178 684q0 -94 -9 -117l-43 -104q-2 -33 -26 -119q-6 -12 -45 -12q-16 0 -90 35q-43 0 -127 -62q-59 -102 -101 -102q-35 0 -82 41t-53 41t-43 -19q-39 -16 -45 -16q-8 0 -38 3t-38 3q-3 0 -73.5 -129t-85.5 -129q-14 0 -39 18.5t-25 30.5q-2 74 -6 96q-8 53 -19 82 q-16 37 -57 58q-41 25 -41 26q-21 44 -21 106q0 12 1 25q4 35 6 133l6 340q-3 22 -18 68q-51 63 -52 84q0 29 43 121q45 90 45 133q0 12 -4 59t-4 60q0 66 15 108q6 18 63 45q55 27 82 27q31 0 84 -29q55 -28 73 -28h1q51 0 167.5 22.5t168.5 22.5q6 0 38.5 -11.5 t40.5 -11.5q41 0 99 -35q109 -41 147 -96q41 -57 41 -170q0 -55 -35 -125l-88 -143q115 -109 137 -144q50 -73 50 -186zM692 1206.5q0 61.5 -78 61.5q-6 0 -21 -6.5t-20 -6.5q-27 -2 -45 0l-39 5q-16 0 -38 -54q-20 -49 -21 -76q0 -4 3 -19t3 -19h21q31 25 92 26q77 3 98 12 q45 15 45 76.5zM821 696q0 47 -23.5 87t-60.5 40q-23 0 -65 -59q-41 -59 -56 -59q-20 0 -53 63q-31 66 -55 66q-16 0 -25 -15q5 -21 5 -37q0 -19 -7 -30q-41 -66 -41 -129q0 -29 47 -29q8 0 37 6t37 6q12 0 51 -12t52 -12h3q154 0 154 114z" />
<glyph unicode="C" horiz-adv-x="1212" d="M1229 475q0 -59 -10 -94q-10 -29 -48 -76q-43 -53 -65 -53q-4 0 -24.5 12t-24.5 12q-8 0 -53 -24q-49 -23 -54 -23q-8 0 -40.5 9.5t-41.5 9.5q-12 0 -77.5 -33t-98.5 -33q-12 0 -98 41q-23 -20 -27 -88q-2 -74 -10 -102q-16 -49 -72 -49q-23 0 -42 24.5t-21 48.5l2 90 q2 88 -125 160q-47 27 -66 27q-2 0 -53 -29t-59 -29q-52 0 -55 43q8 84 8 259q-12 29 -25 75q-1 12 -1 30t1 40q6 73 6 117q0 36 -4 53l-10 42v-3q0 51 51 184q8 53 27 129q23 47 170 144q49 51 145 129q27 8 88 12q90 4 92 4q16 2 76 25q58 22 67 22h1q35 0 182 -63 q45 -6 123 -33q56 -31 56 -117q0 -9 -1 -18q-2 -14 4 -60.5t6 -54.5q0 -35 -12 -78q-14 -55 -39 -55q-2 0 -49 34.5t-65 34.5q-4 0 -35 -61t-54 -61q-31 0 -67.5 96t-56.5 96q-8 0 -33 -8t-29 -8q-102 0 -108 -2q-49 -10 -84 -72q13 -26 13 -80q0 -27 -3 -61q-4 -27 -25 -66 q-23 -41 -24 -57q-6 -31 0 -58q10 -47 10 -55t-8 -36.5t-8 -35.5q0 -70 57 -120q49 -45 121 -62l67 -22q8 0 37 6t37 6q4 0 25.5 9t25.5 9q14 0 51 -16q35 -14 52 -14q25 0 112 59l84 57q49 0 79 -41t30 -98z" />
<glyph unicode="D" horiz-adv-x="1384" d="M1337 858q0 -6 -18 -108l-4 -25q-18 -160 -133 -274q-18 -18 -162 -80q-14 -18 -88 -78q-25 -6 -105 -39q-36 -21 -36 -77q0 -15 5 -60t5 -58q0 -84 -90 -84q-43 0 -58 19q-6 92 -20 170q-8 51 -66 51q-8 0 -33.5 -6t-33.5 -6q-4 0 -24.5 6t-24.5 6q-37 0 -115 -127 q-76 -125 -105 -125q-37 0 -55 103l-22 127q-8 16 -45 61q-31 41 -33 68q-3 20 -3 45q0 34 5 77q10 113 10 129v22q0 163 -29 212q-45 72 -45 98q0 31 15 76q10 41 16 80q6 57 6 199q0 20 12 57q0 80 19 151q29 102 76 103q8 0 35.5 -5t35.5 -5q6 0 32 8t34 8q41 0 119 -18 q86 -16 121 -17q14 0 63 6t64 6q49 0 90 -28q70 -45 86 -53q29 -14 147 -39q80 -16 150 -62q86 -55 112 -112q22 -43 37 -123q18 -89 31 -123q22 -64 22 -156zM887 975q0 63 -41 149q-55 115 -148 115q-23 0 -57.5 -59.5t-38.5 -59.5q-6 0 -43 19q-35 18 -41 18 q-16 0 -33 -14q-18 -14 -20 -27q-2 -10 -2 -102q0 -12 -13.5 -49t-13.5 -45q0 -16 11.5 -74t11.5 -74q0 -33 -13 -100q-10 -76 -10 -101q0 -16 15 -28q47 22 69 22h2h17q29 0 69 -26q53 -33 78 -43q15 9 19 43q2 18 2 51q10 16 67 53q59 41 74 57q15 18 31 166q8 66 8 109z " />
<glyph unicode="E" horiz-adv-x="1060" d="M1018 305q0 -25 -21 -63q-18 -41 -18 -47q-3 -22 0 -56q6 -49 6 -55q0 -68 -74 -68q-68 0 -88 62l-24 119q-12 59 -51 59q-27 0 -89 -25q-58 -22 -79 -22h-2q-4 0 -20.5 -2t-21 -2t-27 2t-26.5 2q-23 0 -82 -84t-88 -84q-28 0 -37 6q-20 18 -30 84q-9 77 -19 92l-102 31 q-51 23 -59 80q-2 8 -2 41.5t2 93.5q1 23 1 45q0 54 -4 102l-24 99q-14 6 -16 43q0 4 -1.5 14t-3.5 14q0 25 23 138q27 131 29 149t2 42q0 40 -6 95q-14 106 -15 129q0 63 21 113q12 33 100 59q4 2 43 2q8 0 32.5 -3t28.5 -3q8 0 23.5 -5t20 -5t19.5 5t21 5l13 -10 q18 31 82 33q4 0 25.5 7t29.5 7q10 0 43 -6t41 -6l272 29q43 0 52 -9q23 -23 47 -79q25 -58 25 -89t-68 -114q-2 -2 -29 -2q-10 0 -41 9t-39 9q-29 0 -86 -47q-53 -47 -57 -47q-6 0 -47 29q-40 31 -43 30q-8 0 -30 -6t-26 -6h-16q-74 0 -74 -63q0 -88 72 -89q4 0 6 3.5 t6 3.5q49 7 68 7q7 0 10 -1l6 6q4 4 12 4q4 0 18.5 -3t18.5 -3t27.5 -5t32.5 -5q10 0 47 3t47 3q80 0 90 -2q88 -12 88 -201q0 -41 -23.5 -75t-58.5 -34q-8 0 -32.5 9.5t-28.5 9.5q-15 0 -49 -92q-35 -90 -74 -90q-25 0 -45 69q-23 72 -33 72q-8 0 -28.5 -3t-26.5 -3 q-20 0 -66 16q-43 18 -47 19q-35 0 -59 -74q-18 -55 -19 -88q0 -143 88 -144q23 0 133 54q20 0 90 -29t99 -29q12 0 54 5.5t54 5.5q49 0 82 -82q25 -58 25 -109z" />
<glyph unicode="F" horiz-adv-x="1089" d="M1116 1352q0 -111 -63 -111q-12 0 -57.5 9.5t-59.5 9.5q-25 0 -74 -52q-49 -49 -61 -49q-23 0 -53.5 55.5t-53.5 55.5q-14 0 -73 -17q-66 -20 -89 -43q-18 -23 -18 -88q0 -80 57 -80q6 0 33 10.5t29 10.5q27 2 72 2q16 0 69 -14.5t70 -14.5q4 0 24.5 6.5t26.5 6.5 q111 0 111 -156q0 -86 -43 -117q-115 -25 -127 -31q-57 -25 -57 -82q0 -7 1 -16q3 -23 3 -43.5t-3 -38.5l-5 -10q-5 -10 -10 -23.5t-5 -19.5q-23 -14 -47 -14q-23 0 -49 82q-25 76 -33 84l-45 6l-25 57q-8 23 -33 47q-39 -14 -39 -74q0 -23 23 -116q8 -49 8 -135 q0 -127 -14 -164q-25 -31 -49 -95q-6 -37 -13 -104l7 -53q1 -7 1 -14q0 -33 -16 -60q-23 -41 -59 -41q-58 0 -80 92l-18 140q-8 39 -37 38q-6 0 -24.5 -6t-22.5 -6q-55 0 -56 74v192q0 8 -8 43t-8 43q0 51 20.5 141.5t20.5 141.5q0 45 -21 98q-92 61 -92 121q0 9 37 105 q39 98 41 127q1 8 1 20q0 29 -7 80q-5 34 -4 56v14q2 33 38 61.5t70 28.5q86 0 129 -2l129 -4q119 47 185 47q18 0 63 -19q49 -16 68 -16q4 0 23.5 6t25.5 6l31 2q4 0 13 1t23.5 2t26.5 1l90 4q18 0 47 -37q27 -35 27 -59v-24q-2 -12 -2 -27q0 -6 5 -26.5t5 -24.5z" />
<glyph unicode="G" horiz-adv-x="1396" d="M1327 836l-14 -88l-13 -86q-14 -94 -14 -185q0 -35 17 -123q18 -83 18 -123q0 -37 -25.5 -68.5t-56.5 -31.5q-43 0 -80 78q-35 -4 -86 -23q-55 -20 -90 -20q-8 0 -39 6t-41 6q-14 0 -37.5 -10t-27.5 -23q-8 -51 -17 -69q-8 -25 -41 -64q-27 -41 -106 -51q-35 39 -53 145 q-18 109 -35 130q-33 10 -60 20q-2 0 -6 4l-13 12q-9 9 -20 17q-33 31 -41 30q-12 0 -59 -47t-74 -47q-49 0 -82 76q-10 25 -34 113q-31 35 -68 88q-78 172 -78 237q0 16 29 150q-2 14 -2 59l12 64q0 84 4 112q8 57 53 99q58 43 154 141q2 0 8 1t16.5 2t20.5 1q15 9 19 18 q41 31 75 54q14 8 80 8q4 0 5 -3t7 -3l5 3q4 3 15 10l26 15l36 23q117 49 148 49q35 0 90 -26.5t92 -26.5q23 0 57 10q29 0 60 -2l45 -2q94 -2 172 -106q10 -16 10 -91q0 -4 -6 -51q-4 -31 0 -53l23 -109q0 -24 -26 -52.5t-48 -28.5q-57 0 -82 57q-6 25 -11 49.5t-8.5 34.5 t-3.5 12q-20 68 -53 68q-8 0 -41 -5.5t-41 -5.5q-27 0 -88 17q-59 18 -88 18q-37 0 -117 -26q-27 -8 -32 -27q-12 -25 -31 -80l-39 -4q-35 0 -47 -16q-37 -49 -45 -109l-19 -121q0 -35 19 -71l43 -86q6 -53 39 -146q14 -25 92 -57q86 -35 108 -55l23 -31q10 -19 33 -19 q22 0 53 50q28 9 74 30q8 10 8 58q0 82 -16 114q-14 -2 -58 -39q-34 -32 -58 -32h-1q-15 0 -43 18q-25 16 -30 29.5t-7 48.5q-51 49 -51 88q0 61 37 127q39 76 98 76q16 0 71.5 -12.5t71.5 -12.5q4 0 14.5 3t12.5 3q6 0 26.5 -6t24.5 -6q31 0 80 14q59 16 82 17q47 0 74 -45 q22 -39 22 -88z" />
<glyph unicode="H" horiz-adv-x="1384" d="M1298 356q0 -88 -36 -118q-43 -18 -43 -76q0 -10 4 -43t4 -41q0 -33 -19 -45q-63 -41 -94 -41q-29 0 -51 98q-20 100 -29 103q-25 6 -73 22q-1 6 -1 15q0 31 17 92q23 76 27 112q8 90 8 250q0 80 -31 80q-6 0 -24.5 -3t-22.5 -3q-8 0 -47 11t-47 11q-22 0 -74 -80 q-53 -78 -68 -77q-18 0 -44.5 67.5t-47.5 67.5q-8 0 -46 -14.5t-48 -14.5t-45 23q-22 -53 -22 -144q0 -14 1 -30l7 -181v-27q0 -122 -33 -155q-10 -10 -70 -14q-24 -38 -24 -162v-10q-2 -18 -29 -40t-47 -22q-49 0 -55 139q-4 63 -27 91q-23 12 -66 41q-4 8 -4 71q0 4 4 82 l4 58l-3 37l-5 65q-20 80 -20 104q0 37 8 88q10 66 10 88q0 43 -35 142l-26 74q0 10 22 77l15 48l11 31l3 9q-1 23 -1 48q0 85 11 186q2 18 26.5 41.5t43.5 28.5q125 32 183 32h3q25 0 60 -35q28 -28 43 -55q0 -8 4 -41q11 -26 11 -71q0 -13 -1 -27l-8 -109q-1 -7 -1 -19 q0 -25 3 -73q4 -16 53 -63q47 -45 64 -45q20 0 79 41q63 41 97 41q16 0 53 -14.5t57 -14.5q61 0 68 55v225q16 164 108 164q6 0 27 -3t25 -3q10 0 49 23q36 24 55 24h2q40 0 55 -49q27 -78 27 -102q0 -18 -10 -45l6 -6q0 -43 10 -170q10 -126 10 -162v-10l-28 -381 q-1 -9 -1 -20q0 -44 13 -114q16 -102 16 -133z" />
<glyph unicode="I" horiz-adv-x="962" d="M918 1440q0 -18 -13 -60q-10 -31 -16 -61q4 -27 8 -105q-2 -23 -19.5 -50t-33.5 -27q-33 0 -56 16l-61 51q-16 -6 -53 19q-14 -20 -15 -58q0 36 12 -32q9 -54 25 -175q4 -25 23 -67q23 -51 22 -53q0 -20 -34.5 -84t-34.5 -74q0 -84 16 -121q20 -45 96 -61q76 -14 84 -27 q25 -34 25 -172q0 -39 -21 -78q-12 -12 -30 -43q-2 -43 -6 -59q-6 -43 -21 -51q-53 -37 -65 -37q-25 0 -64 75.5t-59 75.5q-8 0 -43 -11t-45 -11q-4 0 -25.5 5t-30.5 5q-25 0 -51 -61q-23 -51 -22 -64q0 -180 -72 -180q-78 0 -78 145l2 2v74q0 82 -33 84l-41 -23 q-44 -24 -65 -24h-2q-18 0 -32.5 27.5t-14.5 54.5q0 4 5 20.5t5 18.5q-1 33 -1 58q0 50 5 65q15 55 80 73l113 25q38 24 38 124v5q0 101 -12 246q-10 31 -10 61q0 53 20 148q20 96 21 149q0 35 -21 37q-18 -18 -49 -72q-20 -39 -51 -39q-45 0 -47 70q2 33 2 102q-2 6 -39 43 q-35 35 -35 54q0 33 27 84t57 51q4 0 21.5 -6t23.5 -6t26.5 3t27.5 3q10 0 36 14q29 14 41 14q10 0 52 -20q43 -20 55 -21q2 0 10 -3t12 -3q41 0 138 29q92 31 139 31q154 0 154 -123z" />
<glyph unicode="J" horiz-adv-x="1019" d="M967 827q0 -25 -21 -67l-31 -70q-18 -51 -24 -158v9q0 1 2 -4q2 -10 2 -50l2 -86v-29q0 -200 -80 -200q-6 0 -30.5 9t-28.5 9q10 0 10 -2q0 -4 -49 -26q-76 -31 -90 -31q-4 0 -15.5 3t-15.5 3q-45 0 -68 -71l-22 -91q-41 -84 -66 -84h-16q-27 0 -64 80q-35 78 -49 78 q-6 0 -59 -28.5t-59 -28.5q-49 0 -80 32.5t-31 81.5q0 14 6 64q6 37 2 63q-4 23 -20 68q-18 52 -19 68q0 27 32 55.5t58 28.5q29 0 74 -15q49 -14 76 -14q10 0 45 14.5t43 14.5t44 -14.5t44 -14.5q18 0 49 18q29 16 37 31.5t16 58.5q8 150 9 226q0 34 -13 98q-10 51 -14 92 q8 176 8 199q-2 14 -18.5 28.5t-30.5 14.5t-59 -69.5t-66 -69.5q-28 0 -55 153q-3 15 -43 56q-37 43 -37 63q0 92 39 123q23 18 149 47q109 25 125 25q33 0 100.5 -22.5t98.5 -22.5q4 0 76 -11q66 -8 65 -10q12 -8 21 -76q4 -34 4 -77q0 -78 -12 -187q-2 -12 -3 -47 q0 -41 25 -119q27 -74 27 -119z" />
<glyph unicode="K" horiz-adv-x="1269" d="M1235 283q0 -12 -47 -60h-7q-32 0 -87 -16q-18 -10 -39 -127q-18 -98 -80 -98q-37 0 -57 118l-17 152q-6 25 -121 133q-59 92 -63 100q-68 -41 -92 -53q-28 0 -31 25q-14 150 -16 164q-4 12 -60 53q-33 25 -41 26q-25 0 -24 -53l41 -323q0 -33 -43 -119q-40 -86 -43 -129 q0 -27 -5 -80q-10 -29 -32 -55q-29 -35 -52 -35q-29 0 -51 104q-16 90 -22 137q-10 18 -39 29q-41 14 -45 19l-23 104q-18 40 -43 123v9v19q0 11 1 28.5t1 37.5q0 -8 1 2q1 7 4 36q2 21 3 34q1 12 1 23q0 34 -9 57q-2 8 -41 57q-26 32 -26 64q0 20 57 288q6 55 6 101 q0 35 -8 82q-6 55 -6 81v7q0 177 106 178q8 0 38 -9.5t40 -9.5q18 0 45 25q4 -6 8 -25l9 -2q8 -4 18 -4q4 0 25.5 9.5t29.5 9.5q37 0 58 -64q18 -51 18 -94q0 -31 -12 -92q-10 -68 -10 -92q0 -88 36 -103q31 6 146 152q246 311 264 311q14 0 67.5 -6t67.5 -6q10 0 47 6t47 6 q33 0 68 -25.5t35 -54.5q0 -49 -11.5 -72.5t-50.5 -68.5q-82 -90 -114 -139l-21 -131q-14 -100 -59 -101q-10 0 -39 47l-31 54q-29 -23 -67 -70q-41 -53 -41 -84q2 -2 8 -25l100 -88q10 -25 33 -63q10 -12 115 -146q29 -47 77 -96q2 -2 14.5 -13t15.5 -15.5t14 -14.5l15 -15 q5 -5 12 -14.5t11.5 -16.5t8.5 -16.5t6 -18.5t2 -17q0 -6 3 -26.5t3 -24.5z" />
<glyph unicode="L" d="M1208 283q0 -27 -24 -88q-90 12 -140 12q-6 0 -34.5 -12.5t-32.5 -12.5q-6 0 -35 12.5t-33 12.5q-20 0 -71.5 -94.5t-81.5 -94.5q-43 0 -64 132q-9 46 -37 86q-6 -2 -96 -9q-68 -2 -84 -16q-37 -25 -94 -137q-42 -80 -97 -80h-3q-27 37 -35 102q-8 78 -23 105 q-2 8 -47 43q-41 35 -43 47q9 157 12 344q0 16 -9 79.5t-9 80.5l3 187q1 -15 1 -44q-4 86 -29 137q-23 45 -22 51v-1q4 0 61 180v8q2 8 2 43q4 135 9 184q12 0 24 -12q10 37 20.5 45t41.5 8q6 0 33.5 -6t35.5 -6q12 0 47 11t47 11q70 0 84 -106l4 -142q-1 -14 -1 -32 q0 -31 4 -72q24 -81 24 -147v-5q0 -31 -6 -94q-3 -53 -3 -80q0 -13 1 -20q0 -8 4 -47t4 -51q-16 -86 -16 -136q0 -114 60 -114h1q4 0 38 13t42 15h156q2 0 7 -5t9 -5q40 0 123 31q80 33 123 33q84 0 94 -68q-2 -14 -2 -47q0 -49 6 -109q4 -14 27 -63q24 -53 24 -57z" />
<glyph unicode="M" horiz-adv-x="1552" d="M1475 379q0 -68 -60 -96q-35 -16 -51 -35q-6 -6 -21 -111q-14 -88 -65 -88q-43 0 -57 88l-17 94q-10 10 -65 25q-43 12 -56 41v561q0 33 45 264l-8 8q-35 -43 -39 -59l-39 -125l-8 -94q-10 -43 -49 -82q-37 -20 -76 -63q-34 -190 -104 -191q-14 0 -51 41l-37 41 q-4 0 -28.5 -8t-33.5 -8q-25 0 -39 82q0 2 -2 17t-6 36.5t-8 46.5q-18 14 -65 76l-15 71q-12 40 -37 62q-10 -31 -10 -58l41 -385q0 -27 -12 -81q-10 -61 -10 -82q0 -14 11 -67.5t11 -70.5q0 -76 -29 -143q-37 -86 -95 -86q-9 0 -19 2q-18 33 -47 211q-10 53 -37 53 q-8 0 -39 -12t-39 -12l-41 -2q-41 10 -41 129q0 43 8 106.5t8 108.5q2 18 -24 45l-35 35q-14 20 -14 55q0 16 14 57q22 63 22 95q0 17 -2 32t-6 48.5t-8 76.5q10 78 12 229l1 3q1 2 1 8t1 13t1 19.5t1.5 23.5t2.5 30.5t3 36.5q2 27 37 82q37 55 59 55h63q23 0 70 37 q2 0 14.5 -12.5t18.5 -12.5q4 0 18.5 3t18.5 3q59 0 100 -43l45 -92q22 -15 55 -49q33 -43 58 -80q27 -88 100 -246h29l153 324q121 227 224 227q145 0 180 -14q96 -37 96 -260q-2 -27 -4 -80q-1 -23 -1 -41.5t1 -34.5l14 -184v-10q0 -37 -10 -160q-12 -114 -12 -172 q0 -39 16 -127q19 -82 19 -125z" />
<glyph unicode="N" horiz-adv-x="1417" d="M1366 858q0 -31 -25 -70q-27 -41 -38 -65q-16 -39 -17 -115q0 -90 -4 -119q0 -6 -18.5 -24.5t-18.5 -22.5q-6 -102 -10 -135q-2 -10 -18.5 -26.5t-24.5 -16.5t-8 2v2q-2 2 -8 2q-25 0 -60 -92q-35 -90 -67 -90q-49 0 -72 47q-6 12 -10 66q0 49 -6 65q-20 63 -70 146 q-8 6 -37 34q-33 39 -61 113q-18 33 -43 33q-8 0 -41 -19q-37 -16 -41 -16q-51 0 -64 111q0 76 -2 112l-70 82l-88 127q-20 -14 -20 -57q0 -45 14 -105l19 -104q8 -68 8 -160q0 -90 -16 -162q-12 -49 -23 -100q-2 -11 -2 -27.5t2 -37.5l6 -56q0 -45 -26 -90q-29 -37 -66 -37 q-39 0 -64 86q-29 100 -40 111q-12 18 -107 41q-12 41 -18 115q-9 129 -13 141q7 49 7 133q0 34 -1 74q0 51 -20 73q-57 70 -57 86q0 10 24 72l33 84q12 45 12 88q0 58 -12 160q-12 86 -16 158q66 47 75 47q4 0 22.5 -3t25 -3t29 6t26.5 6q8 0 36.5 -3t37 -3t39 6t40.5 6 q88 0 140 -64l88 -137q16 -25 143 -157q76 -78 102 -170q4 -35 21 -76q18 -18 68 -47l57 -68q20 39 20 76l-28 61q-23 49 -29 76q-2 14 -2 32t2 40l8 80q2 12 2 28q0 82 -45 252q0 25 53 60q43 26 59 26h1q10 0 47 -9t47 -9q6 0 39 11t41 11q47 0 78.5 -33.5t31.5 -82.5 q0 -40 -18 -123q-16 -88 -16 -123q0 -65 12 -166q4 -31 22 -82q23 -62 23 -82z" />
<glyph unicode="O" horiz-adv-x="1482" d="M1432 708.5q0 -49.5 -43 -92.5q-45 -45 -48 -61q0 -4 -2 -18.5t-4 -46.5l-4 -60q-2 -63 -14 -94q-14 -39 -62 -94q-66 -78 -79 -101l-29 -114q-23 -90 -72 -90q-27 0 -74 59l-65 84q-29 16 -111 16q-86 0 -116 10q-14 4 -43 21q-29 20 -41 20l-64 -81q-63 -82 -108 -82 q-55 0 -64 69q-8 57 -20 203q-10 82 -115 139q-51 29 -59 45l-23 101q-4 18 -68 45q-39 18 -56 37.5t-18 29t-1 31.5q0 41 37 143q39 98 38 144l-22 47q-2 2 -2 41q0 74 88 198q34 52 68 68q4 2 53 31q51 20 174 90q29 41 47 41q6 0 11 -6t9 -6q10 0 50 20q41 20 51 21 q12 0 45 -13l12 -12q8 0 36 -2t36 -2q16 0 69 16q51 18 76 19q55 0 103 -29l90 -57q33 -14 96 -52q25 -18 98 -151q39 -47 90 -135v-101q0 -51 25 -145t25 -143.5zM1022 920l6 51q0 29 -12 65q-16 47 -37 47q-4 0 -6 -3t-6 -3q-68 0 -115 60q-14 18 -31 34l-49 -86 q-42 -73 -64 -73h-1q-49 0 -64 57q-20 82 -33 96l-47 -14l-16 -41q-29 -33 -72 -117q2 -27 2 -106q-16 -121 -16 -123q0 -74 8 -107q23 -92 76 -135l47 -10q34 -9 37 -25q27 -106 98 -106q23 0 74 14q59 16 67 23q152 109 152 338q0 55 -2 78v16q0 27 4 70z" />
<glyph unicode="P" horiz-adv-x="1236" d="M1229 1081q0 -147 -58 -237q-52 -83 -184 -160q-51 -31 -199 -49q-52 -86 -92 -86q-14 0 -61 29q-43 28 -61 28h-1q-45 0 -57 -20q-9 -17 -9 -65q0 -42 7 -109q0 -137 -6 -164q-18 -78 -96 -125q0 -53 -19 -113q-25 -76 -67 -76q-51 0 -58 99q0 25 -6 108q-16 39 -49 54 l-53 16q-12 24 -12 62q0 14 2 30l8 90q-10 -4 -11 8l9 11l-4 82v17q0 49 8 163l10 94q0 52 -18 104q-2 10 -52 56q-47 43 -47 57q0 41 33 125t33 125q0 16 -15.5 70.5t-15.5 70.5q0 27 22.5 65t45.5 46q104 39 219 39q23 0 76 -25q55 -22 75 -22h2q8 0 41 6t43 6 q125 0 129 -2q6 -2 72 -39q59 -35 64 -35q12 0 61 8.5t61 8.5q61 0 88 -21q53 -41 97 -149q45 -105 45 -181zM831 1153q0 14 -12 37.5t-24 23.5q-35 0 -70 -34.5t-53 -34.5q-39 0 -64 33l-37 67q-49 -37 -49 -63v-236l8 3q8 3 13 3q8 0 16 -26q14 -8 33 -8q92 0 119 14 q41 23 77 92q43 83 43 129z" />
<glyph unicode="Q" horiz-adv-x="1501" d="M1442 565q0 -63 -43 -88q-49 -4 -76 -10q-16 -6 -51 -61q-39 -66 -51 -76l-119 -107l61 -71q63 -80 72 -99q12 -29 20 -116q10 -96 11 -117q0 -45 -25 -96q-28 -61 -67 -62q-12 0 -25 6q-14 14 -25 60q-8 37 -20 57q-43 -25 -76 -25q-80 0 -94 119q-3 37 -19 43 q-14 6 -98 45q-54 48 -54 95q0 5 1 10q-6 -2 -19 -2q-14 0 -37.5 23.5t-25.5 23.5q-135 43 -174 94q-33 -6 -45 -61l-11 -50q-6 -24 -9 -33.5t-3 -11.5q-23 -49 -75 -49q-55 0 -64 33q-2 7 -2 24q0 44 12 160q0 55 -24 113l-49 43q-12 23 -58 90q-55 -18 -49 -18 q-18 0 -43 18q-23 16 -27 35q-2 10 -2 170q0 102 -32 160q-6 14 -7 65q0 66 56 182q57 117 61 170q20 37 78 105l107 41q18 6 89.5 59t76 53t9.5 -2l5 -2l28 15q57 26 100 26h3q6 0 34.5 -12t37.5 -12q29 0 96 22q65 25 98 25l43 -8q4 -4 29 -21q51 -6 123 -33 q51 -31 145 -121q4 -12 33 -69q74 -68 100 -105q51 -63 51 -129l-14 -77q-14 -72 -14 -140q0 -45 22 -151q25 -99 25 -150zM991 840l-2 5q-2 5 -5 18.5t-8 30.5t-12 43l-14 56q2 18 2 60q0 47 -30 77q-41 -169 -94 -169h-1q-16 0 -31.5 16t-15.5 33v182q0 33 -41 33 q-6 0 -31.5 -15.5t-29.5 -15.5q-18 0 -37 35q8 -33 8 -68q0 -112 -77 -112h-1q-12 0 -57 28q-31 -59 -51 -112q-2 -18 -17 -72q6 -6 7 -64q0 -55 -7 -163q20 -117 113 -129l8 -9h19q6 12 6 37q0 27 -23 68q-27 51 -28 67l82 82q43 43 88 43q39 0 77 -57q10 -14 46 -41 t38 -29l31 -43q16 -23 37 -22q6 0 21 8l10 6q3 33 9 87z" />
<glyph unicode="R" horiz-adv-x="1275" d="M1235 82q0 -66 -61 -66q-25 0 -50.5 26t-29.5 52v37q0 25 -13 33q-23 27 -135 57q-65 -92 -92 -92q-43 0 -63 111q-8 53 -15 143q-4 25 -35 55l-32 33q-4 6 -15.5 44t-21.5 46q-27 23 -76 47q-57 29 -78 29q-25 0 -33 -45q-5 -25 -5 -43q0 -14 3 -25l15 -47 q-2 -72 -2 -164q0 -57 2 -59q-2 -33 -11 -47q-8 -27 -28 -35q-41 -16 -60 -31q-12 -8 -22 -61q-6 -47 -17 -57q-29 -23 -49 -23q-40 0 -55 80l-16 90q-27 39 -58 39q-6 0 -6 -2t-6 -2q-50 0 -50 115q0 17 1 38q2 45 2 79q0 56 -6 79q-15 56 -15 112v7q0 16 8.5 73.5 t8.5 75.5q0 20 -10 47q-78 84 -78 121q0 8 28 88q31 88 33 97q7 43 7 84q0 13 -1 26l-12 148v9q0 55 66 89q37 16 45 16q4 0 12 -6t12 -6q16 0 69.5 6t69.5 6q8 0 43 -6t46 -6q20 0 69 23l19 -17q18 6 41 6q49 0 129 -26q12 -4 53 -31q47 -25 51 -25l45 21q2 2 86 2 q25 0 115 -74q90 -72 110 -102q8 -14 25 -70q14 -49 14 -74q0 -2 -10 -47l-12 -47q-20 -84 -45 -112q-162 -113 -162 -150q0 -9 31 -37q33 -27 39 -43q6 -55 36 -145l93 -119q44 -69 44 -132q0 -7 -1 -15q-2 -14 -2 -58q0 -16 9 -71.5t9 -71.5zM813 1081q-2 18 -18 35 l-88 -69q-41 0 -54 49q-8 53 -10 80q-16 -18 -55 -46q-24 -8 -65 -8h-17q-14 -27 -14 -37q0 -8 7 -42.5t7 -43.5l14 7q4 -4 23 -43q12 -27 49 -27h20q35 0 187 90q14 26 14 55z" />
<glyph unicode="S" horiz-adv-x="1247" d="M1198 1337q0 -27 -12 -71q-8 -35 -15 -72q1 -20 1 -43q0 -47 -5 -109q-12 -55 -57 -55q-29 0 -72 107l-49 104q-14 2 -31 -27q-28 -46 -49 -67q-65 0 -73 61q-16 106 -23 115q-18 0 -46 -2t-69 -6t-69 -6q-20 -20 -54 -37q-73 -40 -73 -77q0 -30 49 -60q51 -29 80 -29 q6 0 8 3t6 3q18 0 65.5 -61.5t51.5 -61.5q6 0 55 20.5t78 20.5q18 0 96 -55l76 -55q70 -55 78 -172q-2 -68 -2 -201q0 -12 18 -121l15 -84q0 -96 -46 -96q-16 0 -61 22q-37 23 -55 41l-80 -57q-66 -47 -78 -47q-4 0 -8 3t-8 3q-33 0 -60 -68l-28 -98q-27 -57 -82 -57 q-51 0 -66 57q-20 92 -29 104q-35 55 -137 56q-4 0 -22.5 -3t-22.5 -3t-5 -3t-5 -3q-18 0 -121 53q-16 0 -53 -41t-66 -41q-67 0 -67 74q0 12 6 52t6 52q-2 61 -2 123t2 123q2 16 25.5 41.5t40.5 25.5q4 0 33.5 -14t31.5 -14q53 -6 129 -33q14 -10 76 -74q47 -47 84 -47 q23 0 65.5 20.5t65.5 20.5q4 0 28.5 -8t28.5 -8q31 0 66 32q39 33 39 64q0 39 -33 53l-188 66q-49 18 -103 30l-8 2q-2 2 -15 10l-22 16q-10 7 -24.5 13.5t-22.5 6.5t-47 -18.5t-47 -18.5q-53 0 -68 26l-16 58q-10 33 -47 53l-60 35q-14 16 -28 71q-14 51 -15 80 q0 39 72 166q117 205 182 234q14 6 78 10q58 3 80 18l55 60q34 32 70 32h2q27 0 78 -18q55 -16 78 -16q25 0 67 2l66 2h12q47 0 131 -25q100 -25 133 -49q37 -21 37 -113z" />
<glyph unicode="T" horiz-adv-x="1140" d="M1157 1376q0 -113 -78 -159q-2 0 -47 -5q-39 -137 -86 -137q-14 0 -43 72q-27 74 -51 74q-66 0 -68 -45q-5 -51 -5 -87q0 -43 7 -63q6 -23 7 -33q0 -12 -9 -18l-8 -8l8 -6q4 -29 4 -95l-4 -12q-4 -12 -4 -16q0 -90 21 -252q22 -169 22 -245v-7q0 -114 -49 -160 q-27 -16 -61 -51q1 -5 1 -16q0 -20 -3 -60q-43 -153 -100 -153h-1q-31 0 -55.5 137t-38.5 137q-4 0 -17.5 -3t-17.5 -3h-24q-12 6 -25 37q-4 13 -4 53v29l2 100q-4 59 -14 123l-15 84q0 18 23 80q25 58 25 80q0 10 -19 40q-16 29 -20 43q-10 45 -17 281q2 14 2 45 q0 27 -20 33q-104 31 -139 31q-4 0 -33 -60q-27 -57 -56 -57q-25 0 -57.5 25.5t-42.5 52.5q-6 14 -6 88q0 12 -4 54t-4 54q0 135 98 135q4 0 20.5 -6t22.5 -6t30.5 -6t33.5 -6q16 0 67 15.5t68 15.5q14 0 63 -17q43 -14 68 -14q37 0 114 43q78 45 82 45q25 0 93 -23 q55 -18 90 -22l147 -6q86 -12 111 -76q16 -43 16 -74z" />
<glyph unicode="U" horiz-adv-x="1363" d="M1290 602q0 -22 -18 -86l-27 -94q-8 -25 -8 -88q0 -10 2 -47t2 -49q0 -70 -29 -117q-45 0 -92 53l-43 51q-2 0 -28 -22q-16 -16 -29 -23q-46 -18 -86 -18q-8 0 -38 6t-38 6q-4 0 -21.5 -6t-23.5 -6q-4 0 -25.5 6t-29.5 6q-49 0 -78 -139q-45 -92 -94 -119q-14 18 -66 166 q-25 109 -59 125l-103 16q-94 14 -137 125q-8 12 -51 197q-16 72 -16 252q0 12 -2 26v25q0 16 -45.5 59t-45.5 62q0 10 19 69q24 73 24 114q0 12 -4 87q-4 78 -4 86q0 39 29 158q16 33 39 47q2 0 11 -8.5t15 -8.5h46q10 0 51 14.5t51 14.5q61 0 119 -45l30 -217 q18 -132 19 -141q0 -39 -8 -97q-8 -55 -9 -94v-217q0 -78 52 -153q55 -88 127 -89q27 0 123 33q31 0 79 21q33 25 52 153q-2 2 -2 54q0 86 2 151q-4 18 -23 41l-31 43q-4 12 -4 64l17 73q16 78 16 113q0 14 -3 61t-3 62q0 94 45 151q158 33 221 33q4 0 18.5 -6t18.5 -6 q33 0 59.5 -32t26.5 -68v-185l-4 -75v-5q0 -70 -6 -247l-5 -82l-3 -45q0 -37 14 -94.5t14 -94.5z" />
<glyph unicode="V" horiz-adv-x="1361" d="M1380 1460q0 -43 -53 -127q-53 -82 -59 -98q0 -6 -11.5 -41t-11.5 -41q0 -53 15 -137q16 -94 16 -137q0 -53 -72 -54q-35 0 -65 82q-6 -6 -27 -33l-43 -186l-41 -110q-28 -71 -31 -117q-10 -88 -82 -185q-37 -27 -112 -88q-29 -92 -35 -108q-35 -102 -84 -103 q-22 0 -61 93q-41 96 -48 98h-6q-28 0 -77 16l-43 105q-29 37 -103 164l-43 141q-92 206 -117 375q-14 27 -34 26q-6 0 -37 -18q-29 -16 -35 -16q-41 0 -41 71q0 -28 3 7l3 53q6 104 6 116q0 82 -28 150q-16 39 -17 45q0 46 37 86q16 16 82 16l20 17q6 0 24.5 -8.5 t23.5 -8.5q2 0 45 17q40 18 49 18q133 0 149 -139q8 -84 27 -123l90 -107q61 -74 61 -116q0 -14 -45 -86q-14 -23 -14 -51q0 -4 18 -48l89 -215q12 -29 40 -28q39 0 84 202q37 98 66 189q8 25 8 100q0 74 6 103q27 125 107 295q4 8 27.5 21t31.5 13q37 0 88 -8t88 -8 q4 0 11.5 6t11.5 6q6 0 26.5 5t26.5 5l84 -24q0 -8 6 -36t6 -36z" />
<glyph unicode="W" horiz-adv-x="1974" d="M1942 1436q0 -31 -19 -97q-16 -70 -16 -96q0 -23 12 -76q12 -49 12 -73q0 -98 -51 -99q-4 0 -12 2t-10 2q-12 0 -32 -18t-24 -31q-20 -143 -51 -237l-65 -185q-12 -104 -44 -286q-8 -31 -34 -80q-34 -61 -49 -62q-6 0 -27 19l-37 33q-28 -15 -31 -99q-2 -102 -16 -139 q-23 -59 -76 -59q-49 0 -65 77q-6 123 -9 125q-6 100 -41 101q-6 0 -55 -25q-51 -23 -55 -22q-33 0 -35 49q4 57 8 217q-22 34 -49 110q2 29 2 73.5t-2 103.5l-70 122q-10 29 -16 78q-4 53 -12 78q-6 0 -19 -16q-18 -70 -63 -211v-39q0 -14 -25 -94l-45 -152 q-57 -199 -139 -235q-20 -8 -64 -17q-20 -2 -26 -18l-14 -88q-8 -27 -37 -49.5t-58 -22.5q-49 0 -61 31q-2 70 -33 217q-6 29 -39 74q-33 43 -39 71q-12 46 -37 228l-139 41q0 35 14.5 90t14.5 90q0 33 -27 213q0 18 -16 63q-14 41 -15 66q0 10 5 22l-41 23v15q0 56 14 77 q88 121 100 131q68 80 127 98q-6 12 8 13q4 0 8.5 -6.5t8.5 -6.5t12 3t12 3q25 0 60 -90v-20q0 -34 4 -96q14 -51 22 -95q-1 -11 -1 -23q0 -42 8 -106q18 -14 65 -75q16 -41 25 -168q10 -111 39 -140q59 42 59 163v16l-2 69q25 46 61 129q33 143 97 353q10 20 65 40 q59 25 82 25q8 0 41 -26.5t45 -26.5q14 0 51 18q41 18 54 19q66 0 77 -82v-90q92 -123 93 -203q0 -12 -11.5 -55t-11.5 -52q0 -18 23 -73q25 -68 26 -80l33 -187q2 -14 59 -28q37 34 43 104q0 14 3.5 44t8.5 81t9 96q12 144 49 265q0 53 16 180q6 25 41 54.5t60 29.5 q10 0 49 -5t51 -5q10 0 55 11t58 11q18 0 47 -41t29 -61z" />
<glyph unicode="X" horiz-adv-x="1370" d="M1366 1481q0 14 -4 14q-6 0 -31 -78q-35 -111 -39 -135q-2 -14 -2 -102q-8 -82 -49 -82h-18q-33 0 -57.5 27.5t-24.5 60.5q-35 -29 -47 -74q-16 -59 -25 -72l-41 -57q-41 -98 -41 -127q2 2 8 2l-4 -2q4 -4 2 -6q57 -66 166 -168q16 -16 23 -57l6 -43q2 -4 47 -47 q90 -80 90 -154q0 -31 -25 -92q-2 -4 -43 -21q-40 -12 -49 -12q-4 0 -20.5 3t-22.5 3q-20 0 -43 -16q-6 -178 -104 -197q-27 12 -43 133l-14 158l-37 45q-20 45 -31 59q-16 29 -43 52q-37 31 -43 43q-12 20 -31 168h-12q-35 -109 -78 -168q-41 -43 -96 -129 q-10 -57 -45 -148l-80 -43l-121 -49l-16 -88q-18 -53 -76 -53q-31 0 -47 80l-15 90q-27 27 -73 28q-37 2 -37 41q0 47 127 191q12 16 12 41q0 8 -2 30.5t-2 28.5q0 33 18 51q40 18 111 62q6 4 47 98q12 14 49 70q37 74 37 112.5t-131 171.5q-125 127 -160 146 q-20 12 -45.5 40.5t-25.5 47.5q0 61 88 112q63 37 119 48l59 -2q8 0 29.5 5t25.5 5q33 0 73 -15.5t48 -33.5q-1 -9 -1 -19q0 -35 11 -80q6 -12 113 -106q4 -6 35 -80h28q10 12 27.5 54t24.5 50q49 45 120 129l43 93q4 10 46 24q43 18 55 18.5t53 -9t53.5 -9.5t55.5 12.5 t55 12.5q90 0 90 -86z" />
<glyph unicode="Y" horiz-adv-x="1282" d="M1284 1522q0 -23 -8 -49l-12 -50q-4 -40 -4 -97v-40q1 -22 1 -42q0 -52 -4 -97q-4 -31 -38 -31t-62 31q-27 33 -33 33q-51 -51 -63 -86q-20 -57 -115 -158q-14 -43 -33 -82l-53 -70q-35 -49 -41 -75v-193l2 -293q-31 -31 -61 -76v-163q0 -23 -35 -58q-32 -32 -57 -32h-2 q-51 0 -66 94l-8 100q-6 27 -39 39q-35 10 -45 14q-31 25 -47 82v39q0 35 14 92.5t14 91.5q0 14 -14 54.5t-14 44.5q0 16 14 75.5t14 77.5q0 80 -49 156l-96 88q-23 53 -74 133q-16 25 -47 35q-10 -8 -47 -57q-18 -25 -49 -25q-49 0 -57 31q0 63 -15 158q-35 94 -35 131 q0 98 103 120q2 0 22.5 13.5t24.5 13.5q8 0 43 -11t43 -11q14 0 63.5 11t65.5 11q43 0 94 -119l58 -133q16 -16 79 -65q57 -45 69.5 -45t38.5 11t26 17q6 23 34 94q53 90 86 199q6 20 72 92q37 0 129 10l35 23q35 23 51 23q43 0 80 -19q47 -22 47 -61z" />
<glyph unicode="Z" horiz-adv-x="1236" d="M1182 1098q0 -27 -22.5 -57.5t-47.5 -30.5q-22 0 -55 30l-35 29q-29 0 -55 -45q-22 -52 -80 -147q-22 -25 -62 -56q-45 -31 -65 -51l-107 -139q-80 -75 -80 -114v-5q37 -16 68 -16q4 0 49 26q47 27 80 27q16 0 65.5 -12.5t63.5 -12.5q31 0 80 20.5t80 20.5l46 -9 q19 -3 30 -5q12 -12 24 -47q10 -266 10 -309q0 -131 -71 -132q-37 0 -78 60l-37 57q-4 0 -26.5 -6t-26.5 -6q-8 0 -51 14.5t-52 14.5q-35 0 -41 -58q-2 -29 -8 -53q-8 -27 -37 -27q-80 0 -125 174h-139q-8 -2 -24 -34q-16 -53 -29 -84q-31 -82 -70 -82q-55 0 -69 98 q-14 88 -15 92q-12 31 -69 31q-77 3 -117 55q-14 20 -14 86q0 88 36 152q14 25 70 69q61 49 74 66l192 246l23 55q8 20 108 119q26 31 26 70q0 8 -1 16q-2 2 -53 12q-55 10 -62 10l-37 -16q-31 -14 -43 -14q-13 1 -24 2l-43 2q-35 -4 -60 -39q-6 -6 -32 -66q-31 -68 -72 -68 q-6 0 -12 1q-39 61 -82 159l2 111q0 31 -6 68l-8 49q0 127 260 127q49 -25 192 -25q25 0 234 19q6 0 25.5 8t23.5 8q14 0 65.5 -8t67.5 -8q31 0 84 20q55 20 86 21q65 0 65 -94q0 -32 -4 -64l-6 -37v-160q0 -12 11.5 -54t11.5 -54z" />
<glyph unicode="[" horiz-adv-x="1290" d="M1235 1061q0 -31 -16 -64q-20 -39 -50 -39q-27 0 -41 43q-25 61 -26 64q-35 -35 -51.5 -35t-32.5 29q-12 29 -27 28q-27 0 -26 -26v-41q0 24 3 -1q2 -12 5 -42q10 -90 8 -109q-4 -113 8 -206l21 -173q-4 -31 -2 -59q20 -61 32 -61q8 0 31 6t31 6q78 0 96 -72 q6 -25 6 -139q0 -176 -92 -176q-41 0 -47 59l-4 3q-4 3 -10 3q-9 0 -50 -73q-37 -74 -67 -74q-72 0 -72 78q0 46 -18 55q-66 6 -84 14q-49 16 -51 56q-15 203 -7 350q10 143 9 145q-31 35 -60 76q-8 14 -8 47q0 12 20.5 55t20.5 58v303q0 137 51 170q23 16 205 55 q4 -8 12 -16q66 16 127 16q20 0 58 -18q39 -18 49 -35q20 -29 20 -100q29 -137 29 -160z" />
<glyph unicode="\" horiz-adv-x="1013" d="M152 1462q0 74 48 128.5t115 54.5q8 0 34 -7.5t34 -7.5q16 0 29 15q145 -289 209 -459q10 -29 34 -131q23 -96 39 -125q10 -16 39 -51q31 -31 39 -52l62 -184q33 -98 67 -162l60 -75q37 -45 36 -89q0 -14 -6 -59t-6 -57q0 -49 27 -105l47 -96q27 -55 26 -104 q0 -20 -2 -27q-55 -51 -92 -76l-18 -108q-14 -88 -78 -88q-51 0 -80 53q-14 27 -22 96q-10 74 -19 88q-31 25 -45 29q-68 74 -70 110l-20 185q-18 133 -47 166q-27 -27 -49 -27q-53 0 -74 88q-16 70 -10 94q4 29 4 37q0 82 -45 197l-62 159l-34 156q-23 102 -48 150l-75 139 q-47 90 -47 145z" />
<glyph unicode="]" horiz-adv-x="1630" d="M1569 733q0 -33 -29 -67q-35 -43 -41 -56q-8 -20 8 -145q8 -53 2 -113l-10 -86q6 -61 2 -151q-4 -39 -55 -54q-57 -16 -86 -22q-6 -8 -12 -59q-4 -39 -19.5 -53.5t-50.5 -14.5q-37 0 -69.5 73.5t-47.5 73.5q-2 0 -22 -32q-18 -33 -39 -33q-94 0 -94 176q0 113 8 139 q18 72 94 72q6 0 30.5 -6t30.5 -6q25 0 31 47v67q0 20 21 185q14 119 8 194q-2 12 8 96l8 62v47q-2 20 -24 20q-16 0 -29 -28q-10 -29 -31 -29q-14 0 -53 35q-33 -106 -68 -107q-63 0 -63 103q0 55 27 160q0 2 4 45q4 59 67 90q37 18 58 18q14 0 63 -8t66 -8q4 0 5 8t5 8 q39 0 108 -20q72 -18 103 -35q47 -29 47 -145q0 -2 -1 -18.5t-2 -48.5t-1 -67q-4 -135 2 -194q4 -18 20 -58q21 -41 21 -55z" />
<glyph unicode="a" horiz-adv-x="1091" d="M1028 750q0 -25 -22 -54l-35 -47q-8 -14 -8 -76q0 -41 18 -124t18 -123q0 -100 -65 -101q-43 0 -137 82q-16 0 -76 -35q-55 -34 -73 -34h-1q-12 0 -51 11t-51 11q-4 0 -22.5 -16.5t-22.5 -16.5q-16 -8 -49 -8h-64q-6 0 -4 -5t-2 -5q-10 0 -66 24q-53 27 -65 27l-49 -57 q-53 -59 -68 -60q-55 0 -55 60q0 14 8 59t8 60q0 39 -53 92q-25 25 -25 51q0 51 37 139q25 35 53 82q6 41 11 57q18 55 64 96.5t95 41.5q8 0 39 -8.5t39 -8.5q14 0 52 31q37 33 47 37q10 8 90 16q105 14 105 77q0 7 -1 15q-53 29 -67 29q-10 0 -49 -12.5t-50 -12.5 q-18 0 -24 7l-11 -13q-8 2 -23 -14t-40 -51q-47 -68 -70 -68q-63 0 -71 111q-8 0 -38 -9.5t-36 -9.5q-59 0 -59 117q0 82 41 123q31 27 120 55l70 23q29 0 82 -12q39 -8 82 -15q21 1 45 1q61 0 147 -7q182 -16 222 -88q15 -28 18 -104q4 -86 18 -119q31 -72 54 -133 q20 -49 20 -88zM713 586q0 23 -35 53q0 27 -29 66q-20 -53 -31 -70q-23 -39 -51 -53h-16q-18 10 -31 22l-18 37q-23 35 -35 35q-43 0 -51 -82q0 -61 -2 -92q29 -12 47 -13q6 0 26.5 3.5t24.5 3.5q10 0 42 -23.5t44 -23.5t53 28q35 27 51 47q11 11 11 62z" />
<glyph unicode="b" horiz-adv-x="1214" d="M1180 653.5q0 -22.5 -17 -61.5q-18 -43 -39 -43q-47 0 -51 -2q-57 -16 -65 -80q-6 -34 -13 -92q-2 -20 -34 -27q-4 -12 -11 -20q-43 -12 -129 -62q-30 -25 -30 -80v-10q-59 -72 -89 -72q-9 0 -36 62q-27 61 -54 61q-18 0 -67 -24q-51 -23 -68 -23q-4 0 -8 3t-8 3 q-61 0 -80 -63q-23 -182 -68 -182q-35 0 -69 122q-31 123 -49 123q-6 0 -24.5 -6t-23.5 -6q-29 0 -55 33q0 2 6 106l4 70q0 -16 -2 2q-1 11 -6 70q-13 166 -13 226q0 15 1 24l16 180q0 63 -14 86q-51 90 -51 119q0 37 33 100q22 46 22 178v33v24q0 106 16 152q4 8 48 51 q8 8 28 8q12 0 49 -8t47 -8q14 0 59.5 11t59.5 11q31 0 53.5 -20t22.5 -51q0 -14 -14.5 -67.5t-14.5 -67.5q0 -20 21 -176v-54q0 -40 12 -55q18 2 65.5 30.5t57.5 28.5h16q4 0 33 -12t35 -12q18 0 73.5 26.5t73.5 26.5q43 0 64 -27q20 -31 76 -90q41 -14 127 -59 q0 -43 22 -49q14 -39 19 -82q0 -57 8 -139q35 -117 35 -139.5zM823 700q0 51 -41 138q-53 108 -132 108h-1q-14 0 -35 -12q8 -80 9 -117q-23 -16 -43 -16q-45 0 -86 127q-10 2 -31 -8q-14 -27 -14 -62q0 -18 20 -61q20 -41 20 -62q0 -31 -18 -90q-16 -61 -16 -90 q0 -4 3 -17.5t3 -17.5q72 10 76 10q18 0 48.5 -43t39.5 -43q10 0 41 74q31 76 55 82q65 15 80 25q22 16 22 75z" />
<glyph unicode="c" d="M1104 1049q0 -12 -14 -50q-4 -14 -8.5 -26t-6.5 -20.5t-2 -10.5q-2 -20 2 -29q0 -29 -16 -67q-18 -45 -45 -45q-2 0 -12.5 -3t-12.5 -3q-31 0 -39 39q-14 59 -28 79q-4 6 -78 52q-18 -14 -29 -115q-6 -66 -10 -88q-14 -61 -66 -62q-43 0 -49 101q-2 90 -8 117 q-53 53 -86 53q-74 0 -131 -174q-45 -129 -45 -195q0 -10 10 -51q9 -37 19 -43q20 -16 67 -39q193 -31 244 -31q31 0 96.5 61.5t87.5 61.5q68 0 107 -61q36 -52 36 -117q0 -38 -18 -78q-22 -49 -49 -49q-20 0 -31 10l-41 49l-94 -108q-51 -51 -113 -51q-27 0 -86 16 q-51 16 -80 21q-57 -113 -81 -113q-4 0 -18.5 -2t-18.5 -2q-43 0 -64 37q-20 68 -37 100q-33 61 -69 76q-70 29 -74 33q-39 23 -53 57q-8 20 -25 90q-6 31 -76 57q-30 22 -30 63q0 11 20 44q16 27 23 43q31 94 100 258q10 53 45 151q27 43 105 70q66 25 122 39l27 23 q29 23 43 22q6 0 30.5 -6t33.5 -6q23 0 63 20q43 20 66 21l202 -56q39 -12 105 -47q29 -14 59.5 -52.5t30.5 -63.5z" />
<glyph unicode="d" horiz-adv-x="1181" d="M1112 899q0 -31 -14 -61l-33 -80q-6 -16 -6 -47t6 -64l-6 -6q-6 -6 -6 -12t8 -38t6 -44q-1 -16 -1 -35q0 -58 13 -143q20 -121 21 -176q0 -139 -49 -140q-39 0 -58 31l-43 68q-76 -45 -90 -46q-43 0 -104 76q-23 -16 -58 -28q-100 -18 -213 -19q-10 0 -49 14.5t-47 14.5 q-18 0 -33 -70q-18 -78 -39 -92q-49 -37 -65 -37q-10 0 -35 12l-20 230q-2 23 -19 39q-41 -41 -55 -41q-18 0 -42 31.5t-24 56.5q0 31 12.5 82t12.5 82q0 39 -19 108q-16 78 -16 111q0 86 80 223l41 70l31 96q49 129 157 129q33 0 90 -12q61 -12 93 -13q10 0 42.5 9.5 t41.5 9.5q10 0 48 -14.5t46 -14.5h26q16 61 17 82q0 33 -8 33q-4 0 -7 -2q-20 184 -20 209q0 75 97 75h3q4 0 20.5 -3t20.5 -3q6 0 27.5 3t30 3t43 8.5t47.5 8.5q76 0 76 -107q0 -20 -11 -86q-8 -49 -8 -84q0 -104 12 -264q0 -10 14.5 -62.5t14.5 -70.5zM784 670q0 12 -6 57 t-6 57q0 25 10 39h-47q-4 72 -49 72q-10 0 -33 -86q-23 -84 -49 -84q-15 0 -55 55q-39 57 -70 58q-68 0 -86 -103q-8 -41 -8 -162q0 -94 119 -106q8 -20 47 -92h33q25 82 114 82q2 0 12.5 -3t14.5 -3q20 0 41 106q18 90 18 113z" />
<glyph unicode="e" d="M1094 426q0 -135 -21 -250q-6 -37 -41 -37q-29 0 -65 31q-33 33 -52 33q-43 0 -127 -19q-88 -16 -124 -16q-27 0 -89 22l-36 -79l-23 -105q-20 -61 -70 -61q-45 0 -57 35q-4 12 -8 75q-2 76 -10 121q-12 63 -78 94q-84 0 -105 33q-8 35 -10 57q-16 53 -47 54 q-4 0 -14.5 -3t-14.5 -3q-43 0 -51 20q-4 12 -4 43q0 104 66 350q57 213 88 258q55 76 106 95q25 6 127 43q37 12 45 22q4 0 18.5 -3t18.5 -3q8 0 32.5 8t29.5 8q12 0 54 -11t54 -11q10 0 41 3t39 3q61 0 186 -105q58 -31 99 -141q37 -98 36 -176q0 -166 -43 -184 q-31 -14 -92 -15q-8 0 -33.5 3t-33.5 3q-15 0 -37 -55q-23 -57 -25 -59q-16 -10 -84 -19l-24 31q0 10 -4 59q-6 55 -33 56q-6 0 -43 -19q-33 -18 -45 -18q-18 0 -51 20.5t-43 20.5q-35 0 -35 -55q0 -63 45 -78q43 -12 57 -21l19 -39q18 -41 34 -41q20 0 62 21q43 20 63 20 q10 0 48 -14t47 -14q22 0 98 43q78 45 94 45q27 0 46.5 -23.5t19.5 -52.5zM801 905q0 25 -27 60q-27 39 -47 39q-8 0 -47 -35q-35 -35 -57 -35q-29 0 -41 41l-13 65q-96 -125 -96 -161q0 -33 27 -33q20 0 63 20q47 20 53 21q12 0 57.5 -8.5t57.5 -8.5h39q31 2 31 35z" />
<glyph unicode="f" horiz-adv-x="868" d="M870 1298q0 -27 -8 -36q-25 -18 -71 -66q-3 -3 -19 -43q-8 -27 -35 -27q-29 0 -45 48l-24 69q-14 -6 -80 -16q-39 -27 -39 -97v-24q4 -10 20 -10q178 0 179 -99q0 -8 -7.5 -39.5t-7.5 -39.5q1 -13 1 -28q0 -46 -5 -108q-8 -49 -59 -49q-31 0 -43 70q-2 6 -13 84 q-20 6 -45.5 -2t-25.5 -25v-182q0 -57 4 -299q0 -27 8 -82q5 -43 5 -68q0 -8 -1 -14q-4 -20 -27 -63q-33 -59 -34 -68q-4 -20 -4 -74v-53q0 -141 -64 -141q-55 0 -55 92q0 27 2 43q4 25 0 29q-3 58 -31 98q-6 -8 -41 -64q-37 -59 -63 -59q-49 0 -49 74q0 16 11 67t11 68 q0 31 -27 82q-25 52 -24 61q0 20 20.5 63.5t20.5 63.5q0 2 -17 39q-14 33 -18 47q-4 127 -10 187q-2 16 2 61t4 49q0 59 -33 80q-12 -29 -59 -29q-9 0 -43 19q0 14 -4 65.5t-4 65.5q0 27 27.5 55.5t53.5 28.5q37 -6 60 -17q29 0 29 35t-9 54q0 2 -10 20t-10 25q0 45 133 190 q92 102 223 102q25 0 70 -18q49 -16 67 -16q6 0 39 11t41 11q45 0 90 -80q43 -72 43 -121z" />
<glyph unicode="g" horiz-adv-x="1198" d="M1120 602q0 -20 -33 -65q-37 -52 -43 -74q-2 -61 -20 -344q-10 -20 -27 -70q0 -8 -1 -45t-4 -124t-5 -171q-3 -61 -55 -61q-57 0 -80 96q-16 74 -29 92q-4 0 -28.5 -12t-28.5 -17q-55 -24 -99 -24h-3q-4 0 -25 -3t-25 -3q-25 0 -36 12l4 -22q-29 0 -107 -11 q-23 -6 -31 -32l-18 -52q-12 -29 -64 -88h-7q-49 0 -60 58v3q0 3 -1 11t-1 20.5t-1 30t-1 37.5q-4 74 -35 74q-2 0 -51 -23q-43 -25 -51 -24q-41 0 -41 75q0 10 9 47t9 50q-5 37 -4 89v36q4 18 32.5 44.5t47.5 26.5q16 0 39 -22q78 -35 164 -37l163 -4h6q49 0 87 43 q35 40 35 82q0 7 -1 14l-19 -11q-19 -11 -25.5 -11t-7.5 3t-5 3t-14.5 -11.5t-14.5 -11.5l-217 -49q-61 0 -170 49q-53 25 -75 78l-43 98q-2 23 -29 78q-25 4 -53 16q-31 20 -31 54q0 6 22 73l29 84q6 160 10 201q14 113 76 180q25 25 72 49l80 41q15 22 49 50q84 49 119 49 q39 0 145 -49q27 -27 47 -27q2 0 8 3t11 3l38 -29q41 -29 52 -30q31 71 66 71h1q4 0 24.5 -9t24.5 -9t32 13.5t32 13.5q49 14 119 14q16 0 29.5 -31t13.5 -57q0 -43 -14.5 -112.5t-14.5 -112.5q0 -14 9 -67.5t9 -70.5q6 -6 21 -30q14 -56 14 -109zM725 883q-8 -123 -66 -123 q-49 0 -65 67q-8 63 -14 101h-21q-59 -39 -113 -123q-51 -82 -51 -152q0 -31 68 -149q2 -18 14 -64q6 -20 25 -20q4 0 36.5 32.5t55.5 32.5q8 0 30.5 -6t30.5 -6q70 0 70 410z" />
<glyph unicode="h" horiz-adv-x="1226" d="M1167 209q0 -107 -108 -107h-4l-27 -61q0 -8 -14 -66q-16 -59 -49 -59q-23 0 -46.5 29.5t-25.5 56.5q1 12 1 27q0 43 -9 106q-33 20 -84 82q2 25 2 53q0 43 -4 92q-23 80 -23 177q0 47 2 86t2 86q0 92 -26 137h-17q0 -2 -14 -33l-12 -110q-14 -104 -60 -105q-33 0 -41 98 l-12 115q-14 6 -51 31q-10 25 -33 55q-31 -4 -37 -39q-14 -78 -14 -303q0 -23 4 -129q0 -29 1 -59.5t2 -47t1 -22.5v-51l-4 -53q-4 -59 -64 -95q-15 -3 -43 -18q-20 -20 -22 -158q-14 -106 -64 -106q-18 0 -30 12l-19 147q-18 83 -110 123q1 33 1 67q0 68 -5 138 q-4 39 -23 96q-20 59 -20 95q0 31 10 118q12 80 12 119q0 55 -8 72q-3 9 -43 61q-6 10 -6 27q0 14 8 29q2 33 33 151q26 89 26 150q0 16 -4 24v193q0 127 115 127q18 0 68 -37q51 -35 55 -35q10 0 47 9t49 9q63 0 64 -67l-17 -66q-24 -110 -24 -241v-11q0 -27 15 -52t38 -25 q2 0 84 63q84 66 129 66q6 0 34.5 -8.5t35 -8.5t29 5.5t30.5 5.5t36.5 9t37.5 9q28 0 73 -25q45 -20 52 -47q12 -41 22 -170q10 -119 29 -170q2 -10 37 -69q20 -35 20 -78q0 -31 -20.5 -74t-20.5 -51q0 -4 16.5 -26.5t16.5 -28.5q20 -185 20 -244z" />
<glyph unicode="i" horiz-adv-x="598" d="M526 1235q0 -35 -98 -133q-10 -31 -20 -53q-4 -2 -39 -33q3 -3 80 -25q25 -8 42 -50t17 -81q0 -51 -21 -141q-20 -88 -20 -139q0 -68 20 -189q20 -117 21 -186q0 -18 -15.5 -57t-27.5 -52q-22 -12 -55 -43q-12 -20 -25 -100q-14 -94 -78 -94q-49 0 -63 104l-13 100 q-9 37 -61 62q-76 33 -76 121q0 12 4 63t4 64q0 33 -10 49l-47 51q-16 20 -16 47q0 14 20 64q20 51 25 69q12 66 14 156q12 238 113 238q8 0 40.5 -11.5t39.5 -11.5l53 14q-6 22 -31 62q-22 22 -68 22h-4q-8 0 -36.5 -8t-36.5 -8q-82 0 -82 74q0 41 18 180q4 10 31 47 q14 18 63 20q52 3 56 7q0 -20 4 -25q2 14 39 21l49 4q47 22 64 22h1q47 0 91 -100q34 -82 34 -121z" />
<glyph unicode="j" horiz-adv-x="837" d="M727 1294q0 -29 -22.5 -64.5t-45.5 -35.5q-10 0 -49 26.5t-47 26.5q-10 0 -45 -6t-43 -6q-49 0 -63 6q-12 8 -33 45q-20 35 -21 55q0 15 19 62q20 47 20 70l-5 9q-5 9 -5 13q4 18 24.5 46t32.5 28q51 -14 84 -19q20 0 56 23q36 24 57 24h2q46 0 55 -18q7 -19 7 -42 q0 -16 -3 -34q-10 -66 -10 -76q0 -18 17 -67q18 -46 18 -66zM768 586q0 -33 -31 -70q-41 -51 -49 -70q-12 -34 -12 -76q0 -15 2 -32q4 -41 4 -69.5t-4 -43.5l-45 -135q-31 -82 -31 -133l-4 -233q0 -10 -15.5 -21.5t-27.5 -11.5q-8 0 -55 35q-47 37 -58 41q-16 6 -57 4 q-31 -2 -70 -2q-20 -25 -59 -111q-31 -68 -61 -68q-47 0 -48 82v31q0 88 -55 88q-2 0 -10 -3t-10 -3q-8 0 -32 14.5t-26 14.5q0 35 15 120l4 93q16 79 70 79h1q12 0 70 -32q59 -33 86 -33q47 0 55 57q1 14 1 34.5t-1 47.5l-8 105q-2 14 10.5 65t12.5 64q0 10 -11.5 44 t-11.5 38q-12 82 -12 137q0 25 16 86q18 58 19 86q0 47 -39 72q-20 2 -53 20q-8 8 -9 57q0 -4 3 4q1 2 2 6q2 7 4 11q-2 20 -2 55q0 76 30.5 105.5t106.5 29.5q20 0 57 -12q40 -12 49 -12q18 0 74 22q55 25 76 25l53 -20l2 -1l2 -1h2l2 -1l2 -1l2 -1h2l2 -1l2 -1 q20 -33 20 -110q0 -29 -3 -64q-6 -69 -6 -117q0 -56 8 -82q49 -187 49 -202z" />
<glyph unicode="k" horiz-adv-x="1146" d="M1106 176q0 -90 -80 -90q-40 0 -147 31q-14 14 -45 28l-41 -98q-37 -90 -70 -90q-25 0 -41 90q-4 41 -14 125q-8 63 -37 93q-27 28 -74 28h-6l4 74v12q0 68 -31 104q-37 35 -71 72h-4q-31 0 -31 -55q0 -12 8 -63.5t8 -63.5q0 -25 -10 -49q8 -8 6 -48q-4 -47 -22 -118 q-2 -4 -82 -21q-6 -12 -35 -90q-34 -147 -92 -147q-39 0 -52 120q-16 141 -26 156q-27 10 -84 41q0 12 -4 47t-4 47q0 31 16 103q18 68 18 102t-12 105q-10 78 -10 104q0 45 20.5 121t20.5 121q0 33 -8 51q-2 6 -33 37q-29 29 -29 53q0 10 27 76q25 63 29 94q2 14 -5.5 62.5 t-7.5 56.5q0 100 101 100q6 0 33.5 -9t35.5 -9q4 0 11.5 9t11.5 9q6 0 26.5 -6t24.5 -6t12 6t13 6l26 19q27 16 51 16q66 0 66 -80q0 -45 -14.5 -116.5t-14.5 -116.5q0 -28 13 -86q12 -55 12 -84q0 -18 -31 -56l-33 -39q-8 -18 -8 -55q0 -61 15 -88l34 -23q43 59 123 144 q33 10 84 43q61 111 92 162q10 18 60 69q29 23 55 76q25 53 47 72q8 8 68 8q16 0 96 -90q41 -47 41 -55l-21 -56q-23 -61 -30 -125q2 -47 2 -139q0 -55 -45 -55q-46 0 -62 30l-12 46q-27 -23 -88 -109q-78 -109 -78 -141q0 -29 90 -162q20 -39 92 -133q47 -31 131 -107 q21 -22 21 -90z" />
<glyph unicode="l" horiz-adv-x="550" d="M477 205q0 -45 -18 -72q-27 -18 -49 -57q-2 -14 -2 -43q0 -12 4 -51t4 -52q0 -90 -78 -90q-35 0 -62 131q-25 131 -40 131q-6 0 -29 -6t-27 -6q-23 0 -42 34t-15 58q1 1 1 12q0 46 -13 263q0 14 -15 114q-5 38 -5 69q0 24 3 44q0 12 9.5 57t9.5 58q0 43 -72 84 q-12 14 -12 51l23 99q2 10 3 16q18 90 19 194q0 31 -19 92q-16 70 -16 95q0 41 29.5 79.5t64.5 38.5q6 0 40 -12t42 -12h84q6 0 55 22q47 25 54 25q29 0 49 -30t20 -64q-20 -86 -39 -191v-33q0 -86 -12 -206q-6 -51 -6 -140q0 -41 26.5 -114.5t26.5 -114.5l-24 -53 q-23 -55 -23 -84q0 -57 25 -168q26 -107 26 -168z" />
<glyph unicode="m" horiz-adv-x="1789" d="M1706 532v-90q0 -53 -27 -151q-24 -94 -24 -146q0 -24 10 -90q12 -55 12 -84q0 -31 -37 -104h-18q-51 0 -70 61q-8 25 -12 115q-3 71 -31 111q-8 -8 -43 -60q-39 -57 -61 -57q-45 0 -45 86v117q0 31 -12 43q-74 53 -74 90q8 23 57 141q2 2 2 45q0 4 -10 62q-14 74 -16 96 q-2 17 -2 61q0 66 4 191q0 20 -29 20q-12 0 -43 -14t-39 -14t-35.5 6t-34.5 6q-23 0 -40 -26.5t-17 -53.5q0 -12 4 -55t4 -56q-16 -121 -16 -123v-188q0 -16 6 -65.5t6 -65.5q0 -6 -10 -21q-2 -2 -2 -8q0 -12 8 -20q-31 -29 -72 -101q0 -6 7 -30q8 -26 8 -38q0 -18 -13 -59 q-18 -57 -47 -57q-59 0 -73 100l-11 101h-14q-4 0 -32.5 -18.5t-35.5 -18.5h-45q-12 23 -12 51q-1 1 -1 13q0 35 5 161q-2 18 -30 54q-27 33 -27 43q0 14 22 75q23 63 23 95q0 100 -25 237q-2 25 -59 68q-63 -82 -80 -82q-27 0 -57 76q-18 0 -58 -64q-24 -36 -24 -91 q0 -19 6 -72q6 -54 6 -68.5t-6 -63.5t-6 -65q0 23 -6 -7q-3 -13 -6 -34q-9 -71 -9 -81q0 -30 3.5 -69t3.5 -43q-4 -39 -25 -72q-8 -14 -51 -14t-76 19l-59 -156q-14 -14 -29 -14q-68 0 -68 147v61l4 35v-2q-6 23 -18 41q-33 39 -33 107q0 23 10 88q12 59 13 88q0 33 -17 53 q-41 47 -41 70q6 29 39 129q18 59 19 106q0 33 -14.5 82t-14.5 82l37 86q10 8 39 8q15 0 49 -12l4 22h35q6 2 8 0l5 -4l10 -8l6 -4q-20 0 4 6q11 3 34 8q66 14 82 15q43 0 60 -8q27 -18 26 -74q23 -29 37 -29l76 55q77 55 135 56q35 0 92 -45q8 0 23 20q12 18 22 23 q6 2 74 2q6 0 47 -35q45 -39 47 -39q63 -37 70 -37q12 0 108.5 82t137.5 82q10 0 49 -11.5t49 -11.5q2 0 12.5 3.5t14.5 3.5q203 0 223 -273q22 -114 22 -139q0 -14 -11 -63.5t-11 -61.5q0 -56 45 -238z" />
<glyph unicode="n" horiz-adv-x="1261" d="M1196 684q0 -12 -35 -63q-14 -25 -26 -58q-14 -37 -15 -57q0 -10 6.5 -49t6.5 -51.5t-5 -28.5l9 -84l12 -129q0 -152 -162 -152q-80 0 -94 15q-43 35 -43 120q0 8 2 38t2 38q0 22 -6 31q-25 20 -49 45q-6 12 -6 76q0 61 16 213q18 141 18 213q0 102 -4 131q-17 86 -87 86 h-5q-55 -98 -88 -98t-45 43q-15 52 -31 67q-48 -26 -48 -126q0 -11 1 -23l-12 -164q0 -8 -10.5 -45t-10.5 -45q0 -63 9 -154q10 -113 10 -154q0 -8 8 -36.5t8 -34.5q0 -20 -16 -76q-23 -66 -45 -66q-2 0 -35 23t-37 23q-16 0 -47 -72q-27 -57 -33 -92h-33q-35 0 -57 43 q-6 125 -10 155q-14 86 -76 127q-4 6 -6 88q-4 18 2 56q6 39 6 51q0 51 -65 139q-27 33 -27 55q0 16 31 72l30 55q14 72 15 168q0 25 -19 74q-16 53 -16 74q0 166 104 166q16 0 71.5 -27t70.5 -27q68 0 98 -14q28 -12 80 -61q33 45 121 121q25 2 88 26q47 41 78 41 q33 0 73 -47l41 -47q-10 0 -10 2q0 8 45 22q68 23 88 23q12 0 39 -31q33 -33 35 -43q14 -43 29 -123q4 -129 16 -262q4 -35 23 -88q22 -63 22 -92z" />
<glyph unicode="o" horiz-adv-x="1280" d="M1204 592q0 -55 -33 -141q-47 -123 -49 -144q0 -8 5.5 -43t5.5 -45q0 -55 -50 -55q-53 0 -65 41q-10 -18 -37 -27l-43 -16q-33 -18 -45 -158q4 -4 18 -4v-20q0 -57 -30 -97q-30 -41 -81 -41h-9q-18 25 -35 117l-23 131q-20 80 -65 80q-8 0 -41 -3t-41 -3q-33 0 -152 82 q-10 0 -53 -115q-43 -113 -78 -113q-55 0 -70 88l-4 107q-4 29 0 53l2 53q0 68 -18 99q-31 20 -72 69q-8 23 -8 74q1 14 1 26q0 25 -3 46q-4 4 -80 33q-18 6 -18 79q0 86 55 224q10 25 53 67q47 47 54 74q29 115 137 141l200 39q18 8 175 8q14 0 57 -20.5t59 -20.5 q8 0 31 6.5t31 6.5q4 0 17 -8.5t18 -8.5q154 -8 198 -188l43 -283q43 -144 43 -190zM764 852q0 74 -47 131h-21q-8 -61 -26 -131q-37 -45 -58 -45q-47 0 -82 80l-30 90q-18 -10 -51 -72v-49q25 -4 24 -41v-57q14 -59 14 -82q0 -2 -5 -36t-3 -42q18 -55 64 -68q12 -4 73 -4 q72 0 93 21q33 37 36 65q17 243 19 243v-3z" />
<glyph unicode="p" horiz-adv-x="1177" d="M1135 748q0 -65 -13 -105q-22 -68 -43 -154l-16 -53v2v-205q0 -37 -21.5 -63.5t-56.5 -26.5q-27 0 -67 41l-39 41q-4 0 -17.5 -8t-17.5 -8q-90 -18 -125 -19q-16 0 -74.5 8.5t-75.5 8.5q-8 0 -38.5 -2t-41.5 -2q0 -6 11 -115l8 -78q0 -141 -76 -141q-4 0 -9 2l-5 2 q-23 0 -37 -27q-10 -16 -19 -84q-6 -70 -20 -84q2 -2 2 -8q0 -16 -22.5 -37.5t-38.5 -21.5q-51 0 -64 119l-6 73q-10 55 -25 64l-63 20q-20 39 -21 97q0 33 13 127q6 48 6 82q0 28 -4 47q-2 8 -53 53q-49 47 -50 65q0 29 15 72l18 74q10 78 17 268q0 14 7 70.5t7 72.5 q0 39 -14.5 102.5t-14.5 102.5q0 158 107 158q14 0 37 -16l30 -29q84 -20 123 -27l49 -22l125 67q80 33 146 33q6 0 34 -20q29 -16 43 -21q51 -2 158 -10q102 -20 131 -119q29 -10 53 -119l41 -188q7 -16 7 -59zM807 799q-25 139 -47 139q-16 0 -43 -39l6 -121 q-3 -18 -18 -43q-18 -31 -33 -30h-29q-53 0 -53 79q0 143 -2 148h-21q-8 -10 -57 -31q-8 -8 -28.5 -25.5t-30.5 -27.5l-2 -39l2 -37q14 -12 14 -37q0 -18 -13.5 -75.5t-13.5 -75.5q0 -27 19 -76q8 -18 51 -39q49 -23 65 -23h52q59 0 90 15q14 6 26 31l13 38q18 35 37 132 q16 94 16 137z" />
<glyph unicode="q" horiz-adv-x="1325" d="M1262 782q0 -41 -52 -73l-53 -37l-24 -76q-12 -145 -13 -315q0 -104 13 -156l20 -59q20 -43 21 -54q0 -111 -21 -166q-6 -18 -115 -92q0 -4 -13 -27.5t-13 -27.5q-29 -109 -70 -109h-35q-18 61 -18 97q0 170 -29 170q-8 0 -38.5 -5.5t-39.5 -5.5q-4 51 -14 107 q-18 35 -39 88q-2 12 2 61q0 12 1 27.5t2 24t1 12.5q0 88 -43 88q-8 0 -41 -11.5t-39 -11.5q-8 0 -30.5 -6t-26.5 -6q-10 0 -51 9.5t-51 9.5q-6 0 -54 -129q-46 -129 -86 -129q-63 0 -71 106q0 10 -1 26.5t-2 46t-1 52.5q0 27 -15 63q-14 25 -35 39l-36 21q-14 23 -15 51v53 q0 66 -59 76q-35 6 -45 16q-1 6 -1 12q0 33 19 79q29 66 31 88l29 223q8 10 12 29q6 168 172 253q121 63 285 64q16 0 94 -39q83 -37 117 -37h20q3 3 6 31l6 24q8 45 23 46q2 0 88 -7l86 -6q12 -2 55 10.5t53 12.5q51 0 66 -25q27 -39 27 -106q0 -18 -5.5 -80t-5.5 -80 q0 -43 29 -141q23 -81 23 -99zM793 893q0 53 -29 63q1 -6 1 -12q0 -31 -17 -64q-21 -40 -52 -40q-43 0 -69 75l-3 10l-10 33l-16 46h-18q-35 -10 -50 -52l-26 -67q-68 -98 -68 -160q0 -37 25 -113q31 -94 71 -94q16 0 56 23l39 24q20 0 53 -22l33 -25q28 0 37 55 q43 280 43 320z" />
<glyph unicode="r" horiz-adv-x="929" d="M909 1110q0 -25 -20.5 -68t-20.5 -67q0 -8 14.5 -51t14.5 -54q0 -25 -25.5 -47t-52.5 -22q-4 0 -17.5 5t-19.5 5q-4 0 -23.5 20.5t-25.5 20.5q-39 0 -55 -127q-41 -63 -51 -84h-19q-10 0 -24 21q-10 84 -35 167q-68 -23 -84 -63q-6 -15 -6 -86q0 -8 3 -38t3 -38v-141 q0 -16 8 -65.5t8 -63.5q0 -71 -18 -117q-6 -12 -33 -14q-34 -6 -43 -13q-29 -20 -33 -55l4 -53q1 -16 1 -35.5t-1 -40.5q-2 -45 -14 -65q-29 -47 -68 -47q-47 0 -63 79q-6 35 -10 152q0 88 -8 96q-35 14 -84 43q-14 12 -15 53q0 25 10 82q12 55 13 84q0 90 -33 99 q-59 18 -59 51q0 45 22.5 151.5t22.5 153.5q0 31 -14.5 86t-14.5 86q0 33 39 74q41 43 72 43q10 0 40.5 -14.5t38.5 -14.5q4 0 25 10l23 11q39 6 57 10q10 6 33 22q29 23 43 23q35 0 47 -64l8 -94q201 82 258 82q70 0 158 -27q21 -58 24 -61z" />
<glyph unicode="s" horiz-adv-x="1118" d="M1055 373q0 -76 -47 -135q-12 -14 -56 -15q-29 0 -75 47q-43 47 -52 47q7 0 -10 -6l-39 -14q-16 -10 -88 -16q-16 -4 -31 -27l-18 -86q-16 -49 -59 -49q-23 0 -27 2q-49 45 -55 121q-25 2 -170 28q-15 -28 -37 -98q-14 -49 -51 -100q-10 -2 -27 -2q-66 0 -72 94l-8 139 q-35 29 -72 66q-8 8 -8 77q0 143 53 154l48 8q-4 47 -21 109q-55 66 -55 106q0 6 8 36t6 40v16q0 162 150 287q135 111 270 111q14 0 69.5 -26.5t69.5 -26.5q-4 0 72 51q18 8 92 8q18 0 82 -23q61 -23 68 -32q14 -29 14 -72q0 -41 -51 -176q-10 4 -19 -17q4 -10 -8 -49h-20 q-76 63 -105 64q-6 0 -26 -19q-23 -21 -34 -22h-34q-39 0 -66 49q-25 51 -38 51q-20 0 -50 -27.5t-30 -48.5q0 -18 20.5 -39.5t40.5 -27.5q20 -14 78 -37q100 -8 123 -10q20 -10 63 -25q117 -45 131 -55q49 -41 50 -131v-105l30 -114q21 -68 21 -80zM639 592q0 25 -21 39 q-68 4 -198 22q-25 6 -49 17q-39 16 -45 16q-20 0 -55 -47t-42 -47q-4 0 -17 -3t-17 -3q14 -12 102 -51q86 -35 102 -35h43q63 0 119 20q78 29 78 72z" />
<glyph unicode="t" horiz-adv-x="905" d="M848 1135q0 -12 -25 -62q-23 -43 -26 -61v-60q0 -55 -4 -92q-10 -67 -57 -67h-1q-35 0 -63 41l-45 69h-15q-18 -41 -32 -115q3 -33 3 -65q0 -17 -1 -33q0 -15 -19 -98q-14 -63 -14 -90q0 -33 28.5 -61.5t61.5 -28.5q18 0 63 41q47 41 66 41q14 0 37 -41q25 -40 24 -56 q0 -18 -16 -61t-16 -45q-9 -28 -19 -86q8 -51 15 -182l-13 -48q-25 -71 -80 -71h-2q-20 0 -28 2q-25 33 -43 108q-20 82 -29 105q-10 -16 -41 -17q-2 0 -57 17q-10 -10 -45 -133q-18 -72 -49 -72h-19q-14 0 -32.5 22.5t-20.5 38.5q-6 49 -10 164q0 39 -52 90l-67 68 q-17 37 -17 142v12q0 29 -57 86q-55 58 -55 79q0 8 20 41q18 33 23 52q14 49 14 186q-88 27 -88 47q0 25 33 121q4 31 22 65q31 18 60 19q4 0 20.5 -2t20.5 -2q57 0 57 114v15q-1 23 -1 42q0 37 3 56q46 43 105 43q8 0 42.5 -7t45.5 -7h77q10 -10 23 -101q16 -92 41 -120 l213 18q25 0 41 -61z" />
<glyph unicode="u" horiz-adv-x="1230" d="M1163 715l-35 -51q-37 -53 -38 -62q-78 -238 -78 -264q0 -45 16 -154q18 -102 19 -151q0 -10 -10.5 -26.5t-18.5 -16.5h-25q-43 0 -104 123q-57 125 -70 125q-10 0 -42 -8.5t-40 -8.5q-12 0 -51 8.5t-49 8.5q-16 0 -69.5 -14.5t-67.5 -14.5q-8 0 -33 6t-31 6 q-18 0 -20 -6q-43 -88 -47 -115q-16 -90 -74 -90q-67 0 -67 122q0 13 1 28q1 13 1 25q0 72 -21 114q-55 37 -90 104q-2 2 -8 150q-2 70 -58 115q-18 12 -18 55q0 12 14 49l19 55q8 31 41 203q0 43 12 129q0 35 14 84q18 31 78 31q8 0 30.5 -6t30.5 -6q23 0 86 22 q61 25 86 25q27 0 62 -84q0 -6 -9.5 -42t-6.5 -46v-11q0 -116 -41 -383q4 -23 8 -75q0 -8 -33 -88q2 -8 45 -19q41 -10 53 -29l29 -57q14 -20 51 -20q41 0 88 59q37 49 43 78q18 88 19 164q0 39 -13 114q-10 86 -10 115v240q52 37 62 37q12 0 60 -14.5t64.5 -14.5t70.5 8 t71 8q41 0 55 -88q6 -36 6 -66t-6 -53q-6 -25 -6 -51q0 -31 16 -106q16 -61 21 -101q0 -8 9 -35.5t9 -33.5z" />
<glyph unicode="v" horiz-adv-x="1212" d="M1198 1241q0 -46 -24 -129q-20 -82 -25 -125l-2 -74q-8 -43 -33 -82q-25 -2 -49.5 22t-28.5 48q-20 -25 -43 -90l-32 -100q-135 -213 -154 -334q-2 -10 -2 -137q0 -55 -2 -74q-1 -2 -4 -6l-4 -6l8 -11h-35h-1q-18 0 -52 52q-20 -20 -56 -121q-29 -78 -49 -78 q-16 0 -32 84q-14 92 -46 113q-35 4 -81 20q-8 6 -37 66q-25 58 -25 73q-18 39 -35 60q-92 104 -125 305q-4 25 -59 102q-12 -8 -53 -69q-27 -45 -76 -52q-12 47 -12 84q0 43 14 101l11 51q5 24 8.5 37.5t3.5 15.5q-4 29 -5 53q0 33 2 54q16 53 70 108q22 25 74 37 q53 12 80 21q22 22 28 22q3 0 31 -18q25 -16 37 -21q66 -25 88 -110l31 -134q18 -18 55 -75q1 -11 1 -23q0 -25 -5 -55q-8 -51 -8 -80q0 -70 35 -111q20 20 51 105l43 117q18 16 53 59q33 57 35 80l39 217q0 10 25.5 26.5t37.5 16.5q14 0 67.5 -14.5t69.5 -14.5q8 0 37 14.5 t41 14.5h111q8 -10 8 -35z" />
<glyph unicode="w" horiz-adv-x="1701" d="M1655 1028l18 -98q0 -10 -18.5 -24.5t-28.5 -14.5q-43 0 -78 41q-35 -47 -53 -141q-41 -211 -90 -377q-1 -3 -1 -12q0 -18 3 -62q6 -82 6 -96q0 -41 -14 -78q-18 -53 -49 -53q-49 0 -70 131q-2 23 -20 61q-35 -10 -64 -10q-6 0 -37 11t-39 11q-14 0 -51 -90t-65 -90 q-14 0 -37 17.5t-23 31.5q0 209 -10 275q-2 20 -23 53l-30 51q-10 49 -76 314q-20 -20 -31 -97q-12 -96 -16 -110l-37 -103q-25 -68 -25 -127q0 -16 14.5 -72.5t14.5 -72.5t-21.5 -45t-35.5 -29q-4 0 -33 20.5t-33 20.5q-41 0 -76 -22q-8 -6 -20 -148q-10 -127 -66 -127 q-48 0 -48 61q0 10 1 23q5 48 5 98q0 60 -7 123q-53 18 -119 54q-18 63 -77 204q0 8 -15 109q-8 78 -53 106q-29 -31 -51 -30q-45 0 -45 116q0 -4 2 3.5t6 33.5l9 56q5 32 15 88q1 9 1 20q0 39 -15 113q-1 3 -1 8q0 28 22 96q92 66 161 82q2 0 17.5 8.5t21.5 8.5 q12 0 35 -10.5t27 -20.5q10 -20 16 -76q10 -63 17 -78q25 -43 55 -129l6 -155q10 -127 41 -170h16q18 47 23 137q37 27 78 129q25 68 51 151q33 92 41 162q2 0 26.5 12.5t28.5 12.5q27 0 86 -47h17q71 22 103 22h3q43 0 51 -12q29 -35 47 -150q22 -138 37 -178 q12 -35 15 -121q4 -80 24 -112q28 34 43 80l78 241q43 131 96 234q37 20 45 28l15 29q14 27 28 27q8 0 47 -20.5t47 -20.5l113 16q10 -27 10 -71v-15l-2 -74q1 -32 21 -141z" />
<glyph unicode="x" horiz-adv-x="1191" d="M1149 1249q0 -57 -23 -80q-31 -27 -47 -71q-8 -18 -8 -156q0 -8 6 -39t6 -39q0 -29 -18 -57q-16 -14 -33 -14q-49 0 -102 110q-20 0 -53 -49q-33 -45 -33 -68q0 -18 92 -135q6 -6 35 -57q35 -82 96 -123q47 -35 47 -102q0 -16 -8 -58l-14 -84q0 -10 3 -45t3 -45 q0 -94 -70 -94q-25 0 -55.5 82t-48.5 82q-2 0 -14.5 -3t-14.5 -3q-23 0 -35 16q-25 28 -31 31q-31 -31 -34 -45q-28 -135 -56 -135q-18 0 -43 64q-21 54 -21 78q0 4 1 7v219q-63 0 -64 58q0 14 2 24v25q0 47 -41 57q-28 -28 -49 -98q-23 -76 -28 -111q-31 -27 -66 -78 l-4 -53q-6 -39 -18 -47q-29 -23 -50 -23q-2 0 -10 2.5t-12 2.5q-10 0 -45 -102.5t-72 -102.5q-51 0 -51 84q0 12 4 59t4 60q0 73 -42 73h-1q-4 0 -18.5 -3t-18.5 -3q-31 0 -69 31q2 57 71 160l97 141q4 10 67 96q45 59 45 72q0 6 -51 76q-55 78 -80 120q-10 16 -24 17 l-27 -31q-27 -33 -47 -33q-23 0 -35 25q-8 100 -8 182q0 70 8 88q0 37 40 63.5t83 26.5q12 0 54 -5t54 -5q8 0 37 3t37 3q47 0 84 -45q23 -27 64 -110q39 -47 47 -58q20 -45 59 -104l57 110q37 41 72 88q6 18 51 125q23 41 76 41q10 0 41 -3t41 -3q25 6 47 15q35 14 47 14 q6 0 47 -19l45 -20q23 -11 23 -72z" />
<glyph unicode="y" horiz-adv-x="1146" d="M1110 907q0 -82 -51 -82q-14 0 -33 23l-41 47q-23 -18 -31 -45l-45 -158q-41 -78 -112 -268q-23 -86 -23 -205q0 -6 7 -39t5 -43q-12 -78 -67 -78q-4 0 -17.5 2t-17.5 2q-33 0 -47 -100l-21 -125q-14 -37 -47 -37q-8 0 -47 19q-39 16 -43 16q-6 0 -11 -6t-9 -6 q-18 0 -60 41q-23 -29 -43 -137q-18 -113 -37 -138q-46 9 -61 56q-4 12 -4 26q0 16 6 74.5t6 75.5q0 61 -26 61q-8 0 -9 -2q0 -4 -8 -4q-27 0 -78 25q6 76 115 190q29 33 74 119q45 88 45 123q0 43 -68 151q-25 -16 -47 -53q-16 -23 -45 -22q-47 0 -47 96q0 14 7 59t7 58 q0 29 -20 67q-22 43 -25 62l-22 106q-8 39 -56 119q-40 68 -40 126q0 44 29.5 90t66.5 64l12 -12q8 0 35 -5t33 -5q4 0 12 5t12 5q10 0 45 20.5t43 20.5q53 0 80 -69q2 -16 31 -113q4 -10 41 -70q33 -51 33 -65q0 -4 -14.5 -35t-14.5 -35l37 -100q2 -8 26 -8q68 0 115 202 q35 55 76 133q4 53 35 136q22 30 84 30h4q8 0 32.5 -5t32.5 -5q4 0 26.5 5t31.5 5q14 0 45 15q37 16 49 16q14 0 26.5 -16.5t12.5 -30.5q0 -18 -12.5 -75.5t-12.5 -76.5q0 -33 17 -108q18 -70 18 -109z" />
<glyph unicode="z" horiz-adv-x="1179" d="M1094 111q0 -65 -19 -136q-2 -14 -28 -43h-27q-12 10 -64 101q-29 133 -82 133q-6 0 -32.5 -8t-34.5 -8q-4 0 -20.5 5t-22.5 5q-9 0 -55 -43q-43 -43 -70 -43q-34 0 -98 98q-20 -12 -56 -10q-23 2 -47 2q-8 -8 -32 -43l-15 -111q-12 -96 -76 -96q-29 0 -59.5 123 t-46.5 123q-8 0 -30.5 -2t-28.5 -2q-96 0 -97 84q0 6 7.5 45t5.5 53q-4 56 -4 90t4 47q8 31 100 78q43 20 96 102l76 127q23 29 98 88q59 47 62 76q-10 10 -15 10q-8 0 -16 -8q-10 -10 -66 -10q-25 0 -67 16l-39 15q-35 0 -35 -86q0 -18 2 -25l-33 -41q-8 -8 -43 -14 q-16 -4 -22 -4q-61 0 -62 45q0 4 2 22.5t2 22.5v174q0 8 -6 35.5t-6 36.5q0 37 28 69.5t62 32.5q4 0 6.5 -3t6.5 -3t16 22q37 -10 106 -10q23 0 84 10q58 12 86 13q6 0 24.5 -3t23.5 -3q6 0 57 38.5t82 38.5q14 0 67.5 -47t73.5 -47q16 0 78 23q56 24 78 24h2 q27 0 51.5 -18.5t24.5 -42.5q-4 -31 -4 -86q0 -36 2 -84q6 -25 20 -45q8 -8 8 -58q0 -110 -146 -110h-3q-2 0 -8.5 2t-10.5 2q-49 0 -49 -102v-56q0 -18 2 -33v-22q0 -102 -49 -102q-35 0 -76 61l-41 61q-12 0 -59 -53l-64 -74v-24q8 2 33 2q43 0 152 -16q4 0 28.5 -13.5 t30.5 -13.5q23 0 133 53q6 2 35 31q27 27 37 26q16 0 36.5 -24.5t22.5 -42.5q1 -5 1 -15q0 -19 -3 -55q-6 -55 -6 -69v-13q0 -36 8 -118q13 -86 13 -127z" />
<glyph unicode="&#xad;" horiz-adv-x="1210" d="M1022 637q0 -37 -16 -80q-18 -46 -50 -61q-68 -31 -137 -31q-12 0 -57 2t-57 2q-10 0 -44 -10t-43 -10q-16 0 -71 11t-72 11q-37 0 -41 -47l-8 -96q-15 -49 -80 -49q-63 0 -63 71q0 2 1 8.5t2 18.5t1 22q4 41 2 45q-8 14 -96 29q-59 29 -60 107q0 34 31 86t61 61 q70 25 101 25q6 0 6 -6.5t4 -6.5q8 0 47 15.5t49 15.5q2 0 10.5 -3t10.5 -3q35 0 57 22l14 -12l8 2l9 2q0 4 -4 8q156 -35 223 -34q10 0 45 3t47 3q61 0 113 -29q57 -33 57 -92z" />
<glyph unicode="&#x2000;" horiz-adv-x="822" />
<glyph unicode="&#x2001;" horiz-adv-x="1645" />
<glyph unicode="&#x2002;" horiz-adv-x="822" />
<glyph unicode="&#x2003;" horiz-adv-x="1645" />
<glyph unicode="&#x2004;" horiz-adv-x="548" />
<glyph unicode="&#x2005;" horiz-adv-x="411" />
<glyph unicode="&#x2006;" horiz-adv-x="274" />
<glyph unicode="&#x2007;" horiz-adv-x="274" />
<glyph unicode="&#x2008;" horiz-adv-x="205" />
<glyph unicode="&#x2009;" horiz-adv-x="329" />
<glyph unicode="&#x200a;" horiz-adv-x="91" />
<glyph unicode="&#x2010;" horiz-adv-x="1210" d="M1022 637q0 -37 -16 -80q-18 -46 -50 -61q-68 -31 -137 -31q-12 0 -57 2t-57 2q-10 0 -44 -10t-43 -10q-16 0 -71 11t-72 11q-37 0 -41 -47l-8 -96q-15 -49 -80 -49q-63 0 -63 71q0 2 1 8.5t2 18.5t1 22q4 41 2 45q-8 14 -96 29q-59 29 -60 107q0 34 31 86t61 61 q70 25 101 25q6 0 6 -6.5t4 -6.5q8 0 47 15.5t49 15.5q2 0 10.5 -3t10.5 -3q35 0 57 22l14 -12l8 2l9 2q0 4 -4 8q156 -35 223 -34q10 0 45 3t47 3q61 0 113 -29q57 -33 57 -92z" />
<glyph unicode="&#x2011;" horiz-adv-x="1210" d="M1022 637q0 -37 -16 -80q-18 -46 -50 -61q-68 -31 -137 -31q-12 0 -57 2t-57 2q-10 0 -44 -10t-43 -10q-16 0 -71 11t-72 11q-37 0 -41 -47l-8 -96q-15 -49 -80 -49q-63 0 -63 71q0 2 1 8.5t2 18.5t1 22q4 41 2 45q-8 14 -96 29q-59 29 -60 107q0 34 31 86t61 61 q70 25 101 25q6 0 6 -6.5t4 -6.5q8 0 47 15.5t49 15.5q2 0 10.5 -3t10.5 -3q35 0 57 22l14 -12l8 2l9 2q0 4 -4 8q156 -35 223 -34q10 0 45 3t47 3q61 0 113 -29q57 -33 57 -92z" />
<glyph unicode="&#x2012;" horiz-adv-x="1210" d="M1022 637q0 -37 -16 -80q-18 -46 -50 -61q-68 -31 -137 -31q-12 0 -57 2t-57 2q-10 0 -44 -10t-43 -10q-16 0 -71 11t-72 11q-37 0 -41 -47l-8 -96q-15 -49 -80 -49q-63 0 -63 71q0 2 1 8.5t2 18.5t1 22q4 41 2 45q-8 14 -96 29q-59 29 -60 107q0 34 31 86t61 61 q70 25 101 25q6 0 6 -6.5t4 -6.5q8 0 47 15.5t49 15.5q2 0 10.5 -3t10.5 -3q35 0 57 22l14 -12l8 2l9 2q0 4 -4 8q156 -35 223 -34q10 0 45 3t47 3q61 0 113 -29q57 -33 57 -92z" />
<glyph unicode="&#x2013;" horiz-adv-x="1024" d="M204 512v204h616v-204h-616z" />
<glyph unicode="&#x2014;" horiz-adv-x="2048" d="M204 512v204h1640v-204h-1640z" />
<glyph unicode="&#x2019;" horiz-adv-x="477" d="M449 1352q0 -53 -50 -138q-35 -39 -49 -59q0 -59 -2 -86q-3 -80 -55 -80q-49 0 -62 117q-2 0 -14 -2t-14 -2q-72 0 -72 69q0 14 23 43q49 59 49 113q0 33 -41 86t-41 74q0 37 43 82q47 47 82 47q41 0 71 -14q132 -55 132 -250z" />
<glyph unicode="&#x201c;" horiz-adv-x="1017" d="M852 1395q0 -114 -43 -166q-9 -9 -55 -43q-37 -27 -47 -49l4 -68q0 -86 -72 -86h-31q-25 37 -24 82q0 12 4 41q-98 41 -99 76q0 6 41 59q41 57 41 64q0 16 -39 36q-16 8 -35.5 41t-19.5 52q0 25 25 71q27 43 49 54q35 14 67 14q234 0 234 -178zM401 1327q0 -53 -49 -139 l-49 -58v-86q-9 -80 -55 -79q-43 0 -62 116q-4 0 -15 -3t-15 -3q-70 0 -70 72q0 14 23 43q47 57 47 110q0 35 -41 88.5t-41 73.5q0 37 45 82q47 47 82 47q39 0 69 -14q131 -55 131 -250z" />
<glyph unicode="&#x201d;" horiz-adv-x="1017" d="M852 1395q0 -114 -43 -166q-9 -9 -55 -43q-37 -27 -47 -49l4 -68q0 -86 -72 -86h-31q-25 37 -24 82q0 12 4 41q-98 41 -99 76q0 6 41 59q41 57 41 64q0 16 -39 36q-16 8 -35.5 41t-19.5 52q0 25 25 71q27 43 49 54q35 14 67 14q234 0 234 -178zM401 1327q0 -53 -49 -139 l-49 -58v-86q-9 -80 -55 -79q-43 0 -62 116q-4 0 -15 -3t-15 -3q-70 0 -70 72q0 14 23 43q47 57 47 110q0 35 -41 88.5t-41 73.5q0 37 45 82q47 47 82 47q39 0 69 -14q131 -55 131 -250z" />
<glyph unicode="&#x2026;" horiz-adv-x="1983" d="M1861 117q0 -53 -58 -105q-57 -53 -106 -53q-57 0 -121 39q-74 43 -74 94q0 74 39 128t103 54q72 0 139 -43q78 -46 78 -114zM1200 117q0 -53 -58 -105q-57 -53 -106 -53q-57 0 -121 39q-74 43 -74 94q0 74 39 128t103 54q72 0 139 -43q78 -46 78 -114zM539 117 q0 -53 -58 -105q-57 -53 -106 -53q-57 0 -121 39q-74 43 -74 94q0 74 39 128t103 54q72 0 139 -43q78 -46 78 -114z" />
<glyph unicode="&#x202f;" horiz-adv-x="329" />
<glyph unicode="&#x205f;" horiz-adv-x="411" />
<glyph unicode="&#x2122;" horiz-adv-x="2692" d="M2615 379q0 -68 -60 -96q-35 -16 -51 -35q-6 -6 -21 -111q-14 -88 -65 -88q-43 0 -57 88l-17 94q-10 10 -65 25q-43 12 -56 41v561q0 33 45 264l-8 8q-35 -43 -39 -59l-39 -125l-8 -94q-10 -43 -49 -82q-37 -20 -76 -63q-34 -190 -104 -191q-14 0 -51 41l-37 41 q-4 0 -28.5 -8t-33.5 -8q-25 0 -39 82q0 2 -2 17t-6 36.5t-8 46.5q-18 14 -65 76l-15 71q-12 40 -37 62q-10 -31 -10 -58l41 -385q0 -27 -12 -81q-10 -61 -10 -82q0 -14 11 -67.5t11 -70.5q0 -76 -29 -143q-37 -86 -95 -86q-9 0 -19 2q-18 33 -47 211q-10 53 -37 53 q-8 0 -39 -12t-39 -12l-41 -2q-41 10 -41 129q0 43 8 106.5t8 108.5q2 18 -24 45l-35 35q-14 20 -14 55q0 16 14 57q22 63 22 95q0 17 -2 32t-6 48.5t-8 76.5q10 78 12 229l1 3q1 2 1 8t1 13t1 19.5t1.5 23.5t2.5 30.5t3 36.5q2 27 37 82q37 55 59 55h63q23 0 70 37 q2 0 14.5 -12.5t18.5 -12.5q4 0 18.5 3t18.5 3q59 0 100 -43l45 -92q22 -15 55 -49q33 -43 58 -80q27 -88 100 -246h29l153 324q121 227 224 227q145 0 180 -14q96 -37 96 -260q-2 -27 -4 -80q-1 -23 -1 -41.5t1 -34.5l14 -184v-10q0 -37 -10 -160q-12 -114 -12 -172 q0 -39 16 -127q19 -82 19 -125zM1157 1376q0 -113 -78 -159q-2 0 -47 -5q-39 -137 -86 -137q-14 0 -43 72q-27 74 -51 74q-66 0 -68 -45q-5 -51 -5 -87q0 -43 7 -63q6 -23 7 -33q0 -12 -9 -18l-8 -8l8 -6q4 -29 4 -95l-4 -12q-4 -12 -4 -16q0 -90 21 -252q22 -169 22 -245 v-7q0 -114 -49 -160q-27 -16 -61 -51q1 -5 1 -16q0 -20 -3 -60q-43 -153 -100 -153h-1q-31 0 -55.5 137t-38.5 137q-4 0 -17.5 -3t-17.5 -3h-24q-12 6 -25 37q-4 13 -4 53v29l2 100q-4 59 -14 123l-15 84q0 18 23 80q25 58 25 80q0 10 -19 40q-16 29 -20 43q-10 45 -17 281 q2 14 2 45q0 27 -20 33q-104 31 -139 31q-4 0 -33 -60q-27 -57 -56 -57q-25 0 -57.5 25.5t-42.5 52.5q-6 14 -6 88q0 12 -4 54t-4 54q0 135 98 135q4 0 20.5 -6t22.5 -6t30.5 -6t33.5 -6q16 0 67 15.5t68 15.5q14 0 63 -17q43 -14 68 -14q37 0 114 43q78 45 82 45 q25 0 93 -23q55 -18 90 -22l147 -6q86 -12 111 -76q16 -43 16 -74z" />
<glyph unicode="&#xe000;" horiz-adv-x="1360" d="M0 1360h1360v-1360h-1360v1360z" />
<glyph unicode="&#xfb01;" horiz-adv-x="1466" d="M1394 1235q0 -35 -98 -133q-10 -31 -20 -53q-4 -2 -39 -33q3 -3 80 -25q25 -8 42 -50t17 -81q0 -51 -21 -141q-20 -88 -20 -139q0 -68 20 -189q20 -117 21 -186q0 -18 -15.5 -57t-27.5 -52q-22 -12 -55 -43q-12 -20 -25 -100q-14 -94 -78 -94q-49 0 -63 104l-13 100 q-9 37 -61 62q-76 33 -76 121q0 12 4 63t4 64q0 33 -10 49l-47 51q-16 20 -16 47q0 14 20 64q20 51 25 69q12 66 14 156q12 238 113 238q8 0 40.5 -11.5t39.5 -11.5l53 14q-6 22 -31 62q-22 22 -68 22h-4q-8 0 -36.5 -8t-36.5 -8q-82 0 -82 74q0 41 18 180q4 10 31 47 q14 18 63 20q52 3 56 7q0 -20 4 -25q2 14 39 21l49 4q47 22 64 22h1q47 0 91 -100q34 -82 34 -121zM870 1298q0 -27 -8 -36q-25 -18 -71 -66q-3 -3 -19 -43q-8 -27 -35 -27q-29 0 -45 48l-24 69q-14 -6 -80 -16q-39 -27 -39 -97v-24q4 -10 20 -10q178 0 179 -99 q0 -8 -7.5 -39.5t-7.5 -39.5q1 -13 1 -28q0 -46 -5 -108q-8 -49 -59 -49q-31 0 -43 70q-2 6 -13 84q-20 6 -45.5 -2t-25.5 -25v-182q0 -57 4 -299q0 -27 8 -82q5 -43 5 -68q0 -8 -1 -14q-4 -20 -27 -63q-33 -59 -34 -68q-4 -20 -4 -74v-53q0 -141 -64 -141q-55 0 -55 92 q0 27 2 43q4 25 0 29q-3 58 -31 98q-6 -8 -41 -64q-37 -59 -63 -59q-49 0 -49 74q0 16 11 67t11 68q0 31 -27 82q-25 52 -24 61q0 20 20.5 63.5t20.5 63.5q0 2 -17 39q-14 33 -18 47q-4 127 -10 187q-2 16 2 61t4 49q0 59 -33 80q-12 -29 -59 -29q-9 0 -43 19q0 14 -4 65.5 t-4 65.5q0 27 27.5 55.5t53.5 28.5q37 -6 60 -17q29 0 29 35t-9 54q0 2 -10 20t-10 25q0 45 133 190q92 102 223 102q25 0 70 -18q49 -16 67 -16q6 0 39 11t41 11q45 0 90 -80q43 -72 43 -121z" />
<glyph unicode="&#xfb02;" horiz-adv-x="1418" d="M1345 205q0 -45 -18 -72q-27 -18 -49 -57q-2 -14 -2 -43q0 -12 4 -51t4 -52q0 -90 -78 -90q-35 0 -62 131q-25 131 -40 131q-6 0 -29 -6t-27 -6q-23 0 -42 34t-15 58q1 1 1 12q0 46 -13 263q0 14 -15 114q-5 38 -5 69q0 24 3 44q0 12 9.5 57t9.5 58q0 43 -72 84 q-12 14 -12 51l23 99q2 10 3 16q18 90 19 194q0 31 -19 92q-16 70 -16 95q0 41 29.5 79.5t64.5 38.5q6 0 40 -12t42 -12h84q6 0 55 22q47 25 54 25q29 0 49 -30t20 -64q-20 -86 -39 -191v-33q0 -86 -12 -206q-6 -51 -6 -140q0 -41 26.5 -114.5t26.5 -114.5l-24 -53 q-23 -55 -23 -84q0 -57 25 -168q26 -107 26 -168zM870 1298q0 -27 -8 -36q-25 -18 -71 -66q-3 -3 -19 -43q-8 -27 -35 -27q-29 0 -45 48l-24 69q-14 -6 -80 -16q-39 -27 -39 -97v-24q4 -10 20 -10q178 0 179 -99q0 -8 -7.5 -39.5t-7.5 -39.5q1 -13 1 -28q0 -46 -5 -108 q-8 -49 -59 -49q-31 0 -43 70q-2 6 -13 84q-20 6 -45.5 -2t-25.5 -25v-182q0 -57 4 -299q0 -27 8 -82q5 -43 5 -68q0 -8 -1 -14q-4 -20 -27 -63q-33 -59 -34 -68q-4 -20 -4 -74v-53q0 -141 -64 -141q-55 0 -55 92q0 27 2 43q4 25 0 29q-3 58 -31 98q-6 -8 -41 -64 q-37 -59 -63 -59q-49 0 -49 74q0 16 11 67t11 68q0 31 -27 82q-25 52 -24 61q0 20 20.5 63.5t20.5 63.5q0 2 -17 39q-14 33 -18 47q-4 127 -10 187q-2 16 2 61t4 49q0 59 -33 80q-12 -29 -59 -29q-9 0 -43 19q0 14 -4 65.5t-4 65.5q0 27 27.5 55.5t53.5 28.5q37 -6 60 -17 q29 0 29 35t-9 54q0 2 -10 20t-10 25q0 45 133 190q92 102 223 102q25 0 70 -18q49 -16 67 -16q6 0 39 11t41 11q45 0 90 -80q43 -72 43 -121z" />
<glyph unicode="&#xfb03;" horiz-adv-x="2334" d="M2262 1235q0 -35 -98 -133q-10 -31 -20 -53q-4 -2 -39 -33q3 -3 80 -25q25 -8 42 -50t17 -81q0 -51 -21 -141q-20 -88 -20 -139q0 -68 20 -189q20 -117 21 -186q0 -18 -15.5 -57t-27.5 -52q-22 -12 -55 -43q-12 -20 -25 -100q-14 -94 -78 -94q-49 0 -63 104l-13 100 q-9 37 -61 62q-76 33 -76 121q0 12 4 63t4 64q0 33 -10 49l-47 51q-16 20 -16 47q0 14 20 64q20 51 25 69q12 66 14 156q12 238 113 238q8 0 40.5 -11.5t39.5 -11.5l53 14q-6 22 -31 62q-22 22 -68 22h-4q-8 0 -36.5 -8t-36.5 -8q-82 0 -82 74q0 41 18 180q4 10 31 47 q14 18 63 20q52 3 56 7q0 -20 4 -25q2 14 39 21l49 4q47 22 64 22h1q47 0 91 -100q34 -82 34 -121zM1738 1298q0 -27 -8 -36q-25 -18 -71 -66q-3 -3 -19 -43q-8 -27 -35 -27q-29 0 -45 48l-24 69q-14 -6 -80 -16q-39 -27 -39 -97v-24q4 -10 20 -10q178 0 179 -99 q0 -8 -7.5 -39.5t-7.5 -39.5q1 -13 1 -28q0 -46 -5 -108q-8 -49 -59 -49q-31 0 -43 70q-2 6 -13 84q-20 6 -45.5 -2t-25.5 -25v-182q0 -57 4 -299q0 -27 8 -82q5 -43 5 -68q0 -8 -1 -14q-4 -20 -27 -63q-33 -59 -34 -68q-4 -20 -4 -74v-53q0 -141 -64 -141q-55 0 -55 92 q0 27 2 43q4 25 0 29q-3 58 -31 98q-6 -8 -41 -64q-37 -59 -63 -59q-49 0 -49 74q0 16 11 67t11 68q0 31 -27 82q-25 52 -24 61q0 20 20.5 63.5t20.5 63.5q0 2 -17 39q-14 33 -18 47q-4 127 -10 187q-2 16 2 61t4 49q0 59 -33 80q-12 -29 -59 -29q-9 0 -43 19q0 14 -4 65.5 t-4 65.5q0 27 27.5 55.5t53.5 28.5q37 -6 60 -17q29 0 29 35t-9 54q0 2 -10 20t-10 25q0 45 133 190q92 102 223 102q25 0 70 -18q49 -16 67 -16q6 0 39 11t41 11q45 0 90 -80q43 -72 43 -121zM870 1298q0 -27 -8 -36q-25 -18 -71 -66q-3 -3 -19 -43q-8 -27 -35 -27 q-29 0 -45 48l-24 69q-14 -6 -80 -16q-39 -27 -39 -97v-24q4 -10 20 -10q178 0 179 -99q0 -8 -7.5 -39.5t-7.5 -39.5q1 -13 1 -28q0 -46 -5 -108q-8 -49 -59 -49q-31 0 -43 70q-2 6 -13 84q-20 6 -45.5 -2t-25.5 -25v-182q0 -57 4 -299q0 -27 8 -82q5 -43 5 -68q0 -8 -1 -14 q-4 -20 -27 -63q-33 -59 -34 -68q-4 -20 -4 -74v-53q0 -141 -64 -141q-55 0 -55 92q0 27 2 43q4 25 0 29q-3 58 -31 98q-6 -8 -41 -64q-37 -59 -63 -59q-49 0 -49 74q0 16 11 67t11 68q0 31 -27 82q-25 52 -24 61q0 20 20.5 63.5t20.5 63.5q0 2 -17 39q-14 33 -18 47 q-4 127 -10 187q-2 16 2 61t4 49q0 59 -33 80q-12 -29 -59 -29q-9 0 -43 19q0 14 -4 65.5t-4 65.5q0 27 27.5 55.5t53.5 28.5q37 -6 60 -17q29 0 29 35t-9 54q0 2 -10 20t-10 25q0 45 133 190q92 102 223 102q25 0 70 -18q49 -16 67 -16q6 0 39 11t41 11q45 0 90 -80 q43 -72 43 -121z" />
<glyph unicode="&#xfb04;" horiz-adv-x="2286" d="M2213 205q0 -45 -18 -72q-27 -18 -49 -57q-2 -14 -2 -43q0 -12 4 -51t4 -52q0 -90 -78 -90q-35 0 -62 131q-25 131 -40 131q-6 0 -29 -6t-27 -6q-23 0 -42 34t-15 58q1 1 1 12q0 46 -13 263q0 14 -15 114q-5 38 -5 69q0 24 3 44q0 12 9.5 57t9.5 58q0 43 -72 84 q-12 14 -12 51l23 99q2 10 3 16q18 90 19 194q0 31 -19 92q-16 70 -16 95q0 41 29.5 79.5t64.5 38.5q6 0 40 -12t42 -12h84q6 0 55 22q47 25 54 25q29 0 49 -30t20 -64q-20 -86 -39 -191v-33q0 -86 -12 -206q-6 -51 -6 -140q0 -41 26.5 -114.5t26.5 -114.5l-24 -53 q-23 -55 -23 -84q0 -57 25 -168q26 -107 26 -168zM1738 1298q0 -27 -8 -36q-25 -18 -71 -66q-3 -3 -19 -43q-8 -27 -35 -27q-29 0 -45 48l-24 69q-14 -6 -80 -16q-39 -27 -39 -97v-24q4 -10 20 -10q178 0 179 -99q0 -8 -7.5 -39.5t-7.5 -39.5q1 -13 1 -28q0 -46 -5 -108 q-8 -49 -59 -49q-31 0 -43 70q-2 6 -13 84q-20 6 -45.5 -2t-25.5 -25v-182q0 -57 4 -299q0 -27 8 -82q5 -43 5 -68q0 -8 -1 -14q-4 -20 -27 -63q-33 -59 -34 -68q-4 -20 -4 -74v-53q0 -141 -64 -141q-55 0 -55 92q0 27 2 43q4 25 0 29q-3 58 -31 98q-6 -8 -41 -64 q-37 -59 -63 -59q-49 0 -49 74q0 16 11 67t11 68q0 31 -27 82q-25 52 -24 61q0 20 20.5 63.5t20.5 63.5q0 2 -17 39q-14 33 -18 47q-4 127 -10 187q-2 16 2 61t4 49q0 59 -33 80q-12 -29 -59 -29q-9 0 -43 19q0 14 -4 65.5t-4 65.5q0 27 27.5 55.5t53.5 28.5q37 -6 60 -17 q29 0 29 35t-9 54q0 2 -10 20t-10 25q0 45 133 190q92 102 223 102q25 0 70 -18q49 -16 67 -16q6 0 39 11t41 11q45 0 90 -80q43 -72 43 -121zM870 1298q0 -27 -8 -36q-25 -18 -71 -66q-3 -3 -19 -43q-8 -27 -35 -27q-29 0 -45 48l-24 69q-14 -6 -80 -16q-39 -27 -39 -97 v-24q4 -10 20 -10q178 0 179 -99q0 -8 -7.5 -39.5t-7.5 -39.5q1 -13 1 -28q0 -46 -5 -108q-8 -49 -59 -49q-31 0 -43 70q-2 6 -13 84q-20 6 -45.5 -2t-25.5 -25v-182q0 -57 4 -299q0 -27 8 -82q5 -43 5 -68q0 -8 -1 -14q-4 -20 -27 -63q-33 -59 -34 -68q-4 -20 -4 -74v-53 q0 -141 -64 -141q-55 0 -55 92q0 27 2 43q4 25 0 29q-3 58 -31 98q-6 -8 -41 -64q-37 -59 -63 -59q-49 0 -49 74q0 16 11 67t11 68q0 31 -27 82q-25 52 -24 61q0 20 20.5 63.5t20.5 63.5q0 2 -17 39q-14 33 -18 47q-4 127 -10 187q-2 16 2 61t4 49q0 59 -33 80 q-12 -29 -59 -29q-9 0 -43 19q0 14 -4 65.5t-4 65.5q0 27 27.5 55.5t53.5 28.5q37 -6 60 -17q29 0 29 35t-9 54q0 2 -10 20t-10 25q0 45 133 190q92 102 223 102q25 0 70 -18q49 -16 67 -16q6 0 39 11t41 11q45 0 90 -80q43 -72 43 -121z" />
</font>
</defs>
</svg>
